<?xml version="1.0" standalone="no"?>
<!DOCTYPE svg PUBLIC "-//W3C//DTD SVG 1.1//EN" "http://www.w3.org/Graphics/SVG/1.1/DTD/svg11.dtd" >
<svg xmlns="http://www.w3.org/2000/svg">
<metadata>
This is a custom SVG webfont generated by Font Squirrel.
Copyright   : Copyright c Monotype Imaging Inc All rights reserved
Foundry     : Monotype Imaging Inc
Foundry URL : httpwwwmonotypeimagingcom
</metadata>
<defs>
<font id="webfontm0w1Nv4G" horiz-adv-x="1267" >
<font-face units-per-em="2048" ascent="1638" descent="-410" />
<missing-glyph horiz-adv-x="458" />
<glyph unicode=" "  horiz-adv-x="458" />
<glyph unicode="&#x09;" horiz-adv-x="458" />
<glyph unicode="&#xa0;" horiz-adv-x="458" />
<glyph unicode="!" horiz-adv-x="614" d="M125 131.5q0 20.5 14 34.5l142 141q14 14 30 15q18 0 33 -15l141 -141q14 -14 14.5 -34.5t-14.5 -33.5l-141 -139q-16 -14 -31 -14q-16 0 -32 14l-142 139q-14 13 -14 33.5zM178 1280v4q0 47 23 66q22 18 67 18h90q41 0 61.5 -26.5t20.5 -59.5v-2l-16 -768 q-4 -51 -18 -70q-18 -23 -64 -22h-55q-57 0 -74 16q-14 14 -18 76z" />
<glyph unicode="&#x22;" horiz-adv-x="765" d="M90 1477v12q0 66 90 65h72q41 0 61.5 -20.5t20.5 -50.5v-6l-21 -230q-2 -39 -20 -59q-15 -18 -62 -19h-30q-45 0 -64 17q-25 20 -26 61zM430 1477v12q0 66 90 65h70q41 0 63 -22q20 -20 21 -49v-6l-21 -230q-2 -39 -20 -59q-15 -18 -62 -19h-32q-39 0 -62 17 q-25 16 -26 61z" />
<glyph unicode="#" horiz-adv-x="1212" d="M66 387l45 184h137l51 215h-137l45 185h135l78 321h211l-74 -321h250l74 321h211l-78 -321h137l-45 -185h-137l-49 -215h133l-45 -184h-134l-75 -324h-211l78 324h-248l-78 -324h-215l80 324h-139zM463 571h248l49 215h-248z" />
<glyph unicode="$" horiz-adv-x="1202" d="M141 68v69q0 57 14.5 78t63.5 21q57 0 145.5 -8.5t143.5 -8.5v371q-14 6 -27.5 13t-27.5 13q-37 16 -56 23q-78 33 -131 68q-45 31 -78 75q-27 39 -36 97q-10 61 -11 137q0 127 47 211q45 82 156 123q82 29 164 32v129q0 35 10 45.5t43 10.5h19q45 0 45 -56v-129 q127 0 235 -10q63 -6 86 -22.5t23 -49.5v-67q0 -57 -14.5 -77.5t-65.5 -20.5q-34 0 -98.5 6t-122.5 6h-43v-338q152 -63 202 -90q68 -35 109 -76q35 -35 47 -86q12 -49 12 -135q0 -70 -8 -168q-6 -72 -31 -119q-39 -76 -127 -110.5t-204 -40.5v-127q0 -37 -9 -47 q-10 -12 -36 -13h-33q-27 0 -33 10q-6 9 -6 50v125q-154 4 -260 14q-66 6 -84 22q-23 19 -23 50zM395 997q0 -41 10.5 -67.5t33 -41t69.5 -32.5v291q-76 0 -94.5 -26.5t-18.5 -96.5v-27zM625 221q70 4 92 27q25 25 24 100v25q0 66 -6 90q-6 23 -28 39q-14 10 -82 39v-320z " />
<glyph unicode="%" horiz-adv-x="1736" d="M45 1034.5q0 108.5 27 186.5q29 80 96 127q70 47 180 47q90 0 149.5 -27t94.5 -74q33 -45 49 -114.5t16 -145.5q0 -106 -28.5 -188t-96.5 -127q-72 -47 -186 -47q-111 0 -180 47q-66 45 -94 129q-27 78 -27 186.5zM236 1034q0 -119 24 -168q16 -33 90 -32q70 0 90 32 q27 51 27 166q0 129 -27 170q-18 33 -90 33q-76 0 -90 -33q-24 -49 -24 -168zM403 12q0 20 7 29l747 1376q18 35 55 35q14 0 23 -4l80 -47q20 -12 20 -43q0 -18 -8 -29l-745 -1376q-23 -35 -58 -35q-14 0 -22 4l-80 47q-19 12 -19 43zM1061 334q0 362 305 362q168 0 240 -96 q70 -94 69.5 -264t-70 -266.5t-241.5 -96.5q-113 0 -182 47q-66 45 -95 127q-26 78 -26 187zM1253 334q0 -117 23 -168q14 -33 92 -33q72 0 90 33q25 49 25 168q0 125 -25 168q-18 33 -90 33q-74 0 -92 -33q-23 -51 -23 -168z" />
<glyph unicode="&#x26;" horiz-adv-x="1439" d="M141 338q0 106 25 180q25 76 80 127q55 52 141 98q-59 68 -82 103q-31 47 -53 112q-20 59 -21 125q0 100 45.5 172t129 105t206.5 33q109 0 181 -15q77 -15 129 -49q49 -33 77 -94q27 -59 27 -158q0 -86 -35 -151q-35 -68 -92 -113q-63 -49 -168 -117l123 -135 q92 -98 125 -127q20 59 39 230q6 57 69 57h72q39 0 51 -14q12 -15 13 -68q0 -80 -23 -186q-20 -92 -57 -168q135 -115 147 -129q31 -33 31 -47q0 -22 -18 -43l-52 -58q-31 -35 -55 -35q-4 0 -29 13q-37 27 -71 55q-39 33 -66 59q-68 -76 -168 -104q-102 -29 -217 -29 q-145 0 -253.5 24.5t-178.5 106.5q-72 84 -72 240zM399 352q0 -61 13 -94q12 -35 39 -49q33 -18 73 -21q61 -4 121 -4q90 0 135 15q53 16 82 51q-39 35 -106 102l-115 119l-100 109q-76 -47 -92 -62q-25 -20 -37 -59q-13 -37 -13 -107zM483 1065q0 -49 31 -109 q33 -61 82 -108q94 45 141 96q43 47 43 133q0 43 -16 66q-15 22 -49 31q-31 8 -103 8q-53 0 -77 -8q-29 -10 -41 -35q-11 -21 -11 -74z" />
<glyph unicode="'" horiz-adv-x="425" d="M90 1477v10q0 37 25 53q23 14 67 14h70q41 0 61.5 -20.5t20.5 -50.5v-6l-21 -230q-4 -41 -18 -59q-15 -18 -62 -19h-32q-45 0 -64 17q-25 20 -26 61z" />
<glyph unicode="(" horiz-adv-x="638" d="M135 682q0 135 6 270q6 121 33 275q25 138 74 227q57 111 153 150q98 39 254 43v-240q-113 0 -161 -45q-51 -47 -74 -150q-16 -74 -23 -131q-10 -113 -12 -139q-4 -102 -4 -123q0 -12 -1 -57t-1 -78q0 -143 2 -195q4 -113 10 -165q8 -82 29 -168q14 -66 41 -111 q23 -41 67 -61q49 -23 127 -23v-240q-168 6 -256 43q-98 41 -151 146q-70 135 -92 340q-21 192 -21 432z" />
<glyph unicode=")" horiz-adv-x="641" d="M-14 -39q86 4 127 23q47 23 69 59q20 33 41 113q27 104 33 231q8 160 8 297t-8 297q-6 127 -33 231q-25 109 -71 150q-51 45 -166 45v240q156 -4 254 -43q96 -39 153 -150q43 -80 74 -229q29 -145 35 -271q6 -131 6 -272t-6 -272q-6 -125 -35 -271q-31 -150 -74 -229 q-53 -104 -151 -146q-88 -37 -256 -43v240z" />
<glyph unicode="*" horiz-adv-x="778" d="M115 1196q0 29 8 47l10 33q18 61 64 61q12 0 32 -10l74 -45l-8 72v10l-1 4l-1 4q0 80 92 80h31q74 0 73 -76v-10l-6 -76l70 37q10 8 33 8q45 0 63 -59l10 -33q8 -18 9 -49q0 -55 -64 -76l-67 -22l67 -68q23 -23 23 -55q0 -37 -35 -66l-25 -20q-29 -27 -59 -27 q-37 0 -66 49l-51 95l-51 -95q-25 -49 -66 -49q-27 0 -59 27l-25 20q-35 31 -34 68q0 33 20 53l66 72l-62 18q-65 23 -65 78z" />
<glyph unicode="+" horiz-adv-x="1136" d="M96 426v211h359v344h225v-344h358v-211h-358v-346h-225v346h-359z" />
<glyph unicode="," horiz-adv-x="608" d="M59 -305q0 10 15 31l51 69l65 88q49 70 66 107l-123 114q-14 12 -14 33q0 23 14 37l137 154q12 14 33 14t35 -14l151 -144q14 -14 15 -41q0 -57 -92 -206q-78 -127 -187 -283q-29 -41 -55 -41q-18 0 -39 14l-55 37q-17 8 -17 31z" />
<glyph unicode="-" horiz-adv-x="950" d="M98 508v94q0 29 29 41q33 14 61 14h572q94 0 94 -55v-80q0 -45 -16 -59q-20 -16 -78 -17h-572q-49 0 -69.5 14.5t-20.5 47.5z" />
<glyph unicode="." horiz-adv-x="614" d="M125 131.5q0 20.5 14 34.5l142 141q14 14 30 15q18 0 33 -15l141 -141q14 -14 14.5 -34.5t-14.5 -33.5l-141 -139q-16 -14 -31 -14q-16 0 -32 14l-142 139q-14 13 -14 33.5z" />
<glyph unicode="/" horiz-adv-x="747" d="M31 31q0 18 18 59l559 1321q23 49 60 49q12 0 39 -10l71 -35q41 -23 41 -53q0 -20 -12 -51l-557 -1321q-20 -51 -62 -51q-18 0 -32 8l-72 33q-53 22 -53 51z" />
<glyph unicode="0" horiz-adv-x="1271" d="M133 684q0 115 12 211q14 111 37 178q27 82 70 146q59 86 154 129q100 47 231 47q133 0 229 -45q92 -43 154 -131q43 -63 70 -148q31 -94 40 -178q10 -80 11 -209q0 -166 -29 -305q-27 -133 -92 -229q-57 -84 -154 -132q-92 -45 -229 -45q-139 0 -231 45q-96 47 -154 132 q-41 57 -70 145q-23 68 -37 178q-12 96 -12 211zM401 684q0 -262 50 -383q20 -47 65 -70q53 -27 121 -26q70 0 119 26q47 25 65 70q51 121 51 383t-51 383q-18 47 -65 71.5t-119 24.5t-121 -24q-45 -23 -65 -72q-50 -121 -50 -383z" />
<glyph unicode="1" horiz-adv-x="1251" d="M340 1192q0 27 16.5 43t46.5 29q145 63 197 79q77 25 135 25q45 0 63.5 -24.5t18.5 -61.5v-1192q0 -46 -18 -67q-18 -23 -64 -23h-71q-41 0 -64 6q-20 6 -32.5 26.5t-12.5 57.5v1018q-115 -57 -145 -57q-47 0 -54 34l-14 89v10l-1 4z" />
<glyph unicode="2" d="M147 84v70q0 27 9 45q12 29 24 43q31 37 35 41l55 57l219 231q84 88 119 129q88 111 123 170q39 66 39 146q0 88 -30.5 118.5t-118.5 30.5q-66 0 -115 -6q-10 -2 -30.5 -4t-37 -4t-30.5 -4q-16 -4 -40 -8t-30 -6q-29 -4 -33 -5q-55 0 -65 56l-15 90q-2 4 -2 18 q0 66 84 78q197 25 314 25q133 0 229 -37q94 -37 143 -113q49 -78 49 -194q0 -80 -26 -174q-25 -84 -74 -162q-59 -100 -162 -203l-305 -291q55 4 152 6l200 6q66 2 134 3q55 0 73 -27q16 -25 17 -70v-55q0 -84 -90 -84h-730q-43 0 -63.5 18.5t-20.5 65.5z" />
<glyph unicode="3" d="M152 109q0 16 2 20l30 100q18 53 64 54q6 0 31 -4q197 -72 333 -72q70 0 111 20.5t57.5 65.5t16.5 117q0 86 -35 120q-33 33 -109 45q-23 4 -84 9q-35 2 -125 2h-36q-57 0 -91 14q-27 12 -26 47v96q0 63 74 64h131q106 0 161 16q49 14 70 62q18 43 18 131 q0 86 -38.5 120.5t-149.5 34.5q-86 0 -174 -14q-20 -3 -49 -8l-37 -6q-39 0 -45 24l-27 127q-2 6 -2 23q0 23 31 45q18 10 111 22q80 10 186 11q233 0 344 -86t111 -277q0 -102 -27 -170q-27 -66 -92 -123q94 -43 135 -121q39 -76 39 -204q0 -225 -113 -332 q-115 -109 -344 -109q-84 0 -204.5 18.5t-198.5 59.5q-49 25 -49 58z" />
<glyph unicode="4" horiz-adv-x="1245" d="M109 514q0 23 26 64l561 747q34 43 68 43h113q43 0 61 -25q20 -27 20 -61v-711h56q55 0 71 -24q14 -23 15 -72v-53q0 -86 -86 -86h-56v-246q0 -46 -18 -67q-18 -23 -63 -23h-62q-59 0 -82 16q-25 18 -24 74v246h-502q-47 0 -57 31l-35 110q-6 22 -6 37zM381 551 q25 0 141.5 6t186.5 8v430z" />
<glyph unicode="5" d="M197 94l1 2q1 2 1 4v9l16 92q6 35 25 53q20 20 43 20l32 -8q23 -6 47.5 -14t55.5 -16q113 -33 196 -33q190 0 191 231q0 43 -10 94q-8 41 -23 70q-14 27 -49 39q-37 12 -135 12q-86 0 -156 -10q-83 -12 -98 -12q-78 0 -78 73v9l45 567q2 49 23 72q18 20 65 20h567 q43 0 65.5 -18.5t22.5 -65.5v-55q0 -43 -16 -69.5t-72 -26.5q-74 0 -421 4l-27 -267q45 4 117 4q47 0 104 -4q37 -2 82 -10q127 -25 190 -141q66 -119 66 -291q0 -139 -53 -246q-51 -102 -153.5 -155.5t-244.5 -53.5q-98 0 -208 21q-117 23 -170 45q-41 22 -41 55z" />
<glyph unicode="6" horiz-adv-x="1269" d="M152 500q0 207 14 348q15 151 43 258q39 147 151 219q109 70 299 70q119 0 263 -13q61 -6 79.5 -22.5t18.5 -69.5v-65q0 -74 -72 -74q-14 0 -59 6q-59 8 -105 10q-78 4 -153 4q-57 0 -99 -20q-35 -16 -53 -57q-10 -27 -28 -105q-14 -61 -21 -147q160 33 256 32 q115 0 188 -26q78 -29 127 -80q45 -47 72 -137q23 -76 23 -203q0 -154 -54 -256q-51 -100 -159.5 -149.5t-268.5 -49.5q-184 0 -297 72q-61 37 -100 100q-33 51 -49 143.5t-16 211.5zM416 446q0 -80 8 -114q10 -43 33 -72q43 -57 182 -57q78 0 117 20q41 23 59 74 q18 52 19 147q0 115 -37 158q-39 45 -121 45q-70 0 -127 -10q-70 -12 -127 -31q0 -16 -1 -48t-3 -46q-2 -27 -2 -66z" />
<glyph unicode="7" d="M223 1229v55q0 47 23 66q20 18 63 18h678q66 0 82 -14q18 -14 18 -68q0 -31 -8 -45l-469 -1112q-31 -78 -57 -104q-25 -25 -61 -25h-105q-23 0 -51 14q-25 12 -25 45q0 16 33 91l420 993q-270 -10 -455 -10q-57 0 -71.5 26.5t-14.5 69.5z" />
<glyph unicode="8" horiz-adv-x="1269" d="M164 366.5q0 92.5 20.5 141.5t67.5 90q37 33 139 90q-82 55 -125 100q-41 45 -57 103q-16 59 -16 143q0 137 40.5 215t137.5 113q92 33 264 33t264 -33q94 -33 139 -113q41 -74 41 -215q0 -71 -18 -129q-18 -61 -64 -108q-46 -49 -129 -105q92 -55 140 -92q49 -39 73 -96 q25 -55 25 -137q0 -63 -8 -111q-10 -59 -27 -94q-14 -31 -49 -74q-29 -35 -66 -55q-43 -23 -86 -35q-46 -12 -104 -18q-57 -6 -131 -7q-141 0 -234 25q-88 23 -147 86q-47 53 -68 119q-22 71 -22 163.5zM426 360q0 -76 23 -114q20 -35 59 -45q33 -8 110 -8h17h16q78 0 111 8 q39 10 59 45q23 39 23 114q0 63 -41 105q-45 45 -166 106l-84 -49q-41 -25 -61 -41q-31 -25 -50 -55q-16 -27 -16 -66zM455 1030q0 -68 20 -102q23 -39 47 -58q20 -16 105 -69l69 41q39 23 68 51.5t39 54.5q14 39 14 82q0 92 -16 119q-12 23 -45 25q-45 4 -121 4 q-98 0 -121 -4q-33 -6 -45 -25q-14 -17 -14 -119z" />
<glyph unicode="9" horiz-adv-x="1269" d="M180 98q0 20 15 64l20 57q14 45 55 45q8 0 21 -4q2 0 12 -3l16.5 -5t36.5 -14l31 -11q115 -29 234 -28q123 0 178 65q27 29 35 72q10 45 12 92q2 18 3 64.5t1 70.5q-78 -23 -129 -31t-125 -8q-203 0 -307 103q-106 104 -107 309q0 227 113 344q111 115 348 115 q184 0 287 -64q106 -66 147 -203q45 -147 45 -378q0 -145 -6 -232q-6 -98 -14 -147q-10 -66 -31 -119q-31 -96 -96 -158q-63 -61 -162 -92q-88 -29 -227 -29q-190 0 -357 58q-49 15 -49 67zM444 940q0 -58 7 -92q6 -31 26 -55q16 -18 49 -29q27 -8 80 -8q125 0 246 45 q0 57 -2 84q-6 74 -8 96q-12 102 -54 145q-43 47 -153 48q-76 0 -115 -21q-41 -23 -57 -70q-19 -51 -19 -143z" />
<glyph unicode=":" horiz-adv-x="593" d="M113 131.5q0 20.5 14 34.5l141 141q14 14 31 15q18 0 33 -15l141 -141q14 -14 14 -34.5t-14 -33.5l-141 -139q-16 -14 -31 -14q-16 0 -33 14l-141 139q-14 13 -14 33.5zM113 688q0 20 14 35l141 141q14 14 31 15q18 0 33 -15l141 -141q14 -14 14 -33q0 -20 -14 -35 l-141 -141q-14 -14 -31 -14q-18 0 -33 14l-141 141q-14 15 -14 33z" />
<glyph unicode=";" horiz-adv-x="608" d="M59 -305q0 10 15 31l51 69l65 88q49 70 66 107l-123 114q-14 12 -14 33q0 23 14 37l137 154q12 14 33 14t35 -14l151 -144q14 -14 15 -41q0 -57 -92 -206q-78 -127 -187 -283q-29 -41 -55 -41q-18 0 -39 14l-55 37q-17 8 -17 31zM123 684q0 20 14 35l142 141q14 14 30 14 q18 0 33 -14l141 -141q14 -12 15 -33q0 -23 -15 -35l-141 -141q-14 -14 -31 -14q-18 0 -32 14l-142 141q-14 15 -14 33z" />
<glyph unicode="&#x3c;" horiz-adv-x="1429" d="M102 575v164l1192 467v-241l-800 -308l800 -307v-241z" />
<glyph unicode="=" horiz-adv-x="1026" d="M96 264v185h834v-185h-834zM96 616v187h834v-187h-834z" />
<glyph unicode="&#x3e;" horiz-adv-x="1425" d="M135 109v241l801 307l-801 308v241l1190 -467v-164z" />
<glyph unicode="?" horiz-adv-x="1028" d="M121 1311q0 49 72 61q164 25 311 25q199 0 299 -78q98 -77 98 -252q0 -141 -110 -254q-33 -35 -105 -100q-65 -58 -92 -86q-41 -41 -53.5 -68t-12.5 -82q0 -31 -14 -45q-12 -12 -59 -12h-74q-49 0 -64 18q-14 16 -14 66v51q0 68 43 127q39 53 123 127q82 74 123 125 q41 53 41 121q0 65 -31 92q-33 29 -108 29q-53 0 -109 -7q-33 -4 -147 -26q-29 -6 -45 -6q-43 0 -50 34l-20 125v9q0 2 -1 3zM246 131.5q0 20.5 14 34.5l141 141q16 14 31 15q18 0 33 -15l141 -141q14 -14 14.5 -34.5t-14.5 -33.5l-141 -139q-16 -14 -31 -14q-16 0 -33 14 l-141 139q-14 13 -14 33.5z" />
<glyph unicode="@" horiz-adv-x="2156" d="M168 479q0 471 233 703q236 231 713 231q236 0 408 -65q174 -66 272 -187q102 -123 148 -297q47 -178 47 -401q0 -248 -103 -375q-106 -131 -303 -131q-86 0 -168 41t-133 108q-68 -51 -115 -75q-52 -28 -110 -43q-55 -14 -133 -15q-100 0 -164 33q-61 33 -96 100 q-33 66 -33 164q0 160 88 228q86 66 246 84q111 10 141 12q106 4 119 4q0 104 -17 143q-18 47 -88 47q-111 0 -301 -43q-20 -6 -39 -6q-63 0 -63 66v55q0 72 59 84q20 6 154 25q100 14 180 14q74 0 166 -20q82 -18 129 -72q45 -49 61 -113q14 -57 15 -209v-145q0 -88 2 -113 q4 -41 8 -59q18 -86 104 -86q68 0 101 51t33 205q0 274 -41 432q-43 166 -175 260q-133 96 -391 96q-207 0 -348 -45q-135 -43 -209 -135q-78 -98 -104 -229q-29 -143 -29 -350q0 -221 55 -371q55 -152 189 -236q131 -82 354 -82q108 0 197 19q86 18 198 55q18 8 33 8 q33 0 45 -30l31 -76q10 -31 10 -41q0 -43 -63 -64q-121 -41 -244 -59q-127 -18 -236 -18q-223 0 -383 67q-158 66 -258 193q-102 129 -147 290q-45 166 -45 373zM877 293q0 -133 75 -133q139 0 283 100q-10 47 -10 160q-94 4 -101 4q-147 0 -196 -25q-51 -26 -51 -106z" />
<glyph unicode="A" horiz-adv-x="1284" d="M37 49q0 18 16 64l420 1171q23 53 43 72q23 20 78 20h84q57 0 80 -20q23 -18 41 -70l442 -1194q8 -18 8 -31q0 -61 -73 -61h-113q-43 0 -63.5 18.5t-32.5 53.5l-90 256q-59 -2 -244 -2h-76h-84q-18 0 -44 1t-32 1l-82 -242q-15 -49 -36 -68q-20 -18 -68 -18h-94 q-47 0 -63.5 12t-16.5 37zM471 539q12 0 35.5 1t34.5 1h92h92q10 0 34.5 -1t39.5 -1l-164 483z" />
<glyph unicode="B" horiz-adv-x="1224" d="M172 90v1194q0 53 27 68q29 16 71 16h267q170 0 231 -6t111 -31q76 -37 116 -121q41 -86 41 -198q0 -96 -26 -158q-27 -63 -86 -113q94 -37 139 -118q41 -76 41 -215q0 -195 -96 -304q-41 -45 -82 -63q-45 -20 -113 -31q-72 -10 -149 -10h-394q-51 0 -75 20 q-23 19 -23 70zM446 229q139 -4 148 -4q86 0 141 13q47 8 71.5 49t24.5 121q0 76 -18 106.5t-59 40.5q-57 14 -187 14h-121v-340zM446 782h109q66 0 107 9q58 9 86 49q27 39 26 149q0 74 -20 107q-14 25 -29 32q-16 10 -39 13q-16 2 -86 2q-10 0 -29.5 -1t-56.5 -2t-68 -1 v-357z" />
<glyph unicode="C" horiz-adv-x="1155" d="M129 668q0 231 35 364q35 135 108.5 215t178.5 107q111 29 268 28q70 0 233 -10q59 -2 84 -20q23 -16 23 -52v-67q0 -57 -14.5 -77.5t-63.5 -20.5q-16 0 -84 6q-45 4 -137 4q-66 0 -127 -6q-59 -6 -96 -23q-55 -23 -84 -84q-27 -55 -33 -139q-8 -106 -8 -227 q0 -101 6 -172t24 -129q18 -57 58 -95q41 -37 102 -49q68 -10 158 -10q66 0 110 4q68 6 111 6q49 0 63.5 -20.5t14.5 -77.5v-68q0 -35 -23 -51q-25 -18 -84 -20q-12 -2 -39.5 -3t-42 -1t-38 -3.5t-31.5 -3.5h-82q-137 0 -242 25q-137 35 -213 123t-106 221q-29 123 -29 326z " />
<glyph unicode="D" horiz-adv-x="1331" d="M160 90v1194q0 51 28.5 67.5t71.5 16.5h356q221 0 342 -51q125 -53 187 -203q63 -156 63 -444q0 -111 -14 -230q-12 -109 -47 -184q-39 -86 -107 -145q-71 -61 -178 -86q-61 -14 -131 -21q-43 -4 -115 -4h-356q-49 0 -76 20q-24 19 -24 70zM434 244q8 -2 28.5 -3t31.5 -1 q23 -2 84 -2q76 0 147 10q86 15 129 61q43 47 59 131q14 78 15 226q0 132 -6 208t-35 139.5t-88 88.5q-68 29 -221 28h-66q-4 0 -16.5 -1t-20.5 -1q-12 0 -41 -4v-880z" />
<glyph unicode="E" horiz-adv-x="1101" d="M160 90v1194q0 51 28.5 67.5t71.5 16.5h633q46 0 68 -18q20 -18 20 -66v-55q0 -41 -16 -70q-14 -27 -72 -26q-274 0 -459 6v-320q102 4 158 4q31 0 69.5 1t45.5 1h141q55 0 71.5 -26.5t16.5 -69.5v-29q0 -41 -16 -69q-14 -27 -72 -27q-123 0 -191 2q-35 2 -109.5 3 t-113.5 1v-381q215 6 459 7q57 0 72 -27q16 -29 16 -70v-55q0 -84 -88 -84h-633q-49 0 -76 20q-24 19 -24 70z" />
<glyph unicode="F" horiz-adv-x="1024" d="M160 90v1194q0 51 28.5 67.5t71.5 16.5h594q88 0 88 -84v-55q0 -41 -16 -70q-14 -27 -72 -26q-135 0 -223 2q-35 0 -78 1t-71.5 2t-47.5 1v-318q287 4 381 4q57 0 72 -24q14 -23 14 -72v-29q0 -49 -14 -71q-14 -25 -72 -25q-113 0 -174 2q-33 2 -102.5 3t-104.5 1v-520 q0 -90 -86 -90h-88q-49 0 -76 20q-24 19 -24 70z" />
<glyph unicode="G" d="M129 668q0 231 35 364q37 139 108 217q71 77 179 105q111 29 268 28q76 0 170 -4q55 -2 133 -10q61 -6 84 -22q20 -14 20 -50v-69q0 -57 -14 -78t-63 -21q-31 0 -121 8.5t-168 8.5q-66 0 -127 -6q-59 -6 -96 -23q-55 -23 -84 -84q-27 -55 -33 -139q-8 -106 -8 -227 q0 -101 6 -172t24 -129q18 -57 58 -95q41 -37 102 -49q68 -10 158 -10q31 0 96 12v381h-192q-57 0 -72 27q-16 29 -17 69v29q0 43 16.5 69.5t72.5 26.5h378q88 0 88 -86v-620q0 -45 -20 -70q-18 -22 -68 -37q-68 -20 -157 -30q-80 -8 -166 -9q-137 0 -242 25 q-137 35 -213 123t-106 221q-29 123 -29 326z" />
<glyph unicode="H" horiz-adv-x="1363" d="M160 90v1194q0 51 28.5 67.5t71.5 16.5h88q86 0 86 -84v-444q49 2 248 2t248 -2v444q0 53 26 68q29 16 72 16h86q88 0 88 -84v-1194q0 -90 -88 -90h-86q-51 0 -76 20q-23 18 -22 70v531q-49 -2 -248 -2.5t-248 2.5v-531q0 -90 -86 -90h-88q-49 0 -76 20q-24 19 -24 70z " />
<glyph unicode="I" horiz-adv-x="610" d="M170 90v1194q0 53 27 68q29 16 71 16h88q88 0 88 -84v-1194q0 -90 -88 -90h-88q-51 0 -75 20q-23 19 -23 70z" />
<glyph unicode="J" horiz-adv-x="731" d="M-27 109v55q0 31 19 49q20 20 51 20q6 0 51 -4t66 -4q70 0 98 15q33 16 45 45q14 31 21 98q6 63 6 256v498q-37 0 -73 -1t-54.5 -2t-24.5 -1q-57 0 -72 26q-16 29 -16 70v55q0 47 22.5 65.5t65.5 18.5h340q86 0 86 -84v-620q0 -199 -6 -297q-6 -129 -59 -217 q-51 -84 -152 -125q-96 -39 -248 -39q-123 0 -147 34q-14 20 -17 33q-2 11 -2 56z" />
<glyph unicode="K" horiz-adv-x="1236" d="M160 90v1194q0 51 28.5 67.5t71.5 16.5h88q86 0 86 -84v-467l422 496q29 31 51 43q25 12 64 12h104q37 0 58 -16q18 -16 18 -41q0 -31 -23 -54l-510 -573l545 -555q33 -31 33 -70q0 -27 -20.5 -43t-55.5 -16h-141q-37 0 -64 10q-23 8 -57 43l-424 455v-418q0 -90 -86 -90 h-88q-49 0 -76 20q-24 19 -24 70z" />
<glyph unicode="L" horiz-adv-x="956" d="M160 90v1194q0 51 28.5 67.5t71.5 16.5h88q86 0 86 -84v-1053q184 4 400 5q57 0 71 -27q16 -29 17 -70v-55q0 -84 -88 -84h-574q-49 0 -76 20q-24 19 -24 70z" />
<glyph unicode="M" horiz-adv-x="1662" d="M123 80v14l104 1192q2 49 29 65.5t72 16.5h112q45 0 68 -14q25 -15 37 -49l59 -154q14 -35 21.5 -56.5l18.5 -54t26 -71.5l84 -234l77 -217l82 227l66 187l72 196l67 177q15 34 37 49q20 14 68 14h112q45 0 72 -16.5t29 -65.5l104 -1192v-14q0 -43 -24.5 -61.5 t-75.5 -18.5h-86q-43 0 -66 23q-18 18 -22 65l-54 834l-6 -17.5t-10 -31t-12 -36t-11.5 -34l-8.5 -26.5t-5 -13l-90 -258q-72 -205 -98 -273q-16 -41 -41 -59q-27 -20 -72 -20h-53q-47 0 -70 18q-23 20 -41 61q-35 86 -192 531l-5 18q-5 18 -18 56q-16 57 -28 84l-54 -834 q-4 -49 -22 -68q-20 -20 -66 -20h-86q-49 0 -73 18q-27 21 -27 62z" />
<glyph unicode="N" horiz-adv-x="1415" d="M154 90v1194q0 53 26 68q29 16 72 16h55q45 0 64 -8q25 -10 41 -35q68 -88 110 -151l137 -199l166 -244l168 -244v797q0 53 27 68q29 16 74 16h84q86 0 86 -84v-1194q0 -90 -86 -90h-64q-37 0 -70 8q-23 6 -45 35l-139 195l-141 204l-154 226l-141 206v-784 q0 -90 -90 -90h-82q-51 0 -76 20q-22 19 -22 70z" />
<glyph unicode="O" horiz-adv-x="1421" d="M129 682q0 172 35 315q35 139 117 238q45 53 114 96q63 39 143 57.5t175 18.5q98 0 174 -18q77 -18 141 -56q61 -35 115 -98q154 -181 153 -553q0 -372 -153 -553q-76 -88 -178 -129q-108 -43 -252 -43q-291 0 -432 172q-55 63 -90 153.5t-48 184.5q-14 115 -14 215z M414 682q0 -256 45 -352q61 -133 253.5 -133t254.5 133q45 96 45 352q0 121 -8 203q-10 94 -37 151q-61 131 -254 131t-254 -131q-25 -55 -35 -159q-10 -109 -10 -195z" />
<glyph unicode="P" horiz-adv-x="1193" d="M160 90v1194q0 51 28.5 67.5t71.5 16.5h379q163 0 227 -18q68 -18 123 -78q106 -106 107 -383q0 -117 -17 -184q-18 -80 -57 -134q-41 -57 -102 -86q-37 -16 -76 -26q-47 -12 -88 -15q-66 -4 -129 -4h-193v-350q0 -90 -86 -90h-88q-49 0 -76 20q-24 19 -24 70zM434 676 h232q102 0 133 39q18 25 20 67q4 61 4 123q0 184 -55 213q-27 16 -158 17h-4q-106 0 -172 -5v-454z" />
<glyph unicode="Q" horiz-adv-x="1421" d="M129 676q0 119 12 215q10 80 49 186q35 92 89 156q76 92 180 133q102 41 254 41q289 0 432 -174q84 -102 117 -242q35 -145 34 -315q0 -92 -10 -199q-8 -90 -41 -180q-33 -92 -90 -164q-59 -76 -135 -119q-72 -41 -170 -57q6 -20 22 -37q37 -39 132 -39q12 0 31.5 1 t27.5 1h51q37 0 53 -18q14 -16 15 -82v-43q0 -55 -31 -76q-29 -20 -137 -20q-201 0 -312 73q-113 74 -139 240q-186 37 -295 176q-59 76 -90 164q-29 82 -39 174q-10 99 -10 205zM414 676q0 -256 45 -354q61 -135 253.5 -135.5t254.5 135.5q45 98 45 354q0 258 -45 356 q-66 135 -254.5 135t-253.5 -135q-45 -98 -45 -356z" />
<glyph unicode="R" horiz-adv-x="1259" d="M160 90v1194q0 51 28.5 67.5t71.5 16.5h379q163 0 227 -18q68 -18 123 -78q106 -106 107 -383q0 -240 -135 -332q-55 -37 -138 -49l314 -381q29 -35 28 -72q0 -55 -71 -55h-123q-37 0 -68 10q-29 10 -57 45l-348 443h-64v-408q0 -90 -86 -90h-88q-49 0 -76 20 q-24 19 -24 70zM434 731h232q98 0 133 41q25 35 24 133q0 184 -55 213q-27 16 -154 17h-4q-111 0 -176 -5v-399z" />
<glyph unicode="S" horiz-adv-x="1107" d="M117 68v69q0 55 16 78q14 20 62 21q74 0 164 -8.5t196 -8.5q80 0 107 8q35 10 45 35q12 29 12 90q0 106 -10 133q-8 23 -62 45l-258 109q-115 49 -168 90q-51 39 -69 100q-18 63 -19 187q0 66 8 112q10 53 28.5 92.5t63.5 75.5q35 29 103 54q55 18 123 24q90 8 162 8 q68 0 231 -10q61 -2 86 -20q23 -16 23 -52v-67q0 -57 -14.5 -77.5t-65.5 -20.5q-16 0 -66 4q-39 4 -100 6q-43 2 -203 2q-74 0 -92 -27q-18 -28 -19 -104v-19q0 -37 5 -61q2 -16 16 -31q12 -12 51 -28l78 -33l90 -39q168 -70 227 -107q66 -41 92.5 -100t26.5 -176 q0 -70 -8 -168q-6 -72 -31 -119q-53 -98 -162 -125q-115 -29 -262 -28q-152 0 -301 14q-55 8 -65 12q-23 10 -31 23q-10 17 -10 37z" />
<glyph unicode="T" horiz-adv-x="1167" d="M59 1229v55q0 47 23 66q20 18 63 18h879q88 0 88 -84v-55q0 -41 -16 -70q-14 -27 -72 -26q-68 0 -301 4v-1047q0 -90 -88 -90h-88q-51 0 -76 20q-23 18 -22 70v1047q-238 -4 -304 -4q-57 0 -71.5 26.5t-14.5 69.5z" />
<glyph unicode="U" horiz-adv-x="1392" d="M141 850v434q0 53 27 68q29 16 72 16h86q90 0 90 -84v-604q0 -152 10 -238q10 -82 33 -133q20 -39 45 -59q27 -20 71 -31q47 -10 121 -10q111 0 162 24q53 25 78 76q23 47 33 123q10 82 10 248v604q0 55 26.5 69.5t75.5 14.5h88q51 0 67.5 -22.5t16.5 -61.5v-434 q0 -176 -4 -311q-2 -86 -20 -191q-31 -178 -129 -270q-121 -109 -404 -109q-281 0 -401 109q-104 98 -131 270q-14 92 -19 193q-4 131 -4 309z" />
<glyph unicode="V" horiz-adv-x="1363" d="M72 1307q0 61 73 61h125q45 0 65.5 -18.5t33.5 -53.5l323 -931l316 917q14 43 36 66q20 20 70 20h100q53 0 64 -10q14 -14 14 -39q0 -29 -14 -64l-420 -1167q-16 -45 -45 -70q-27 -23 -78 -22h-94q-53 0 -76 20q-25 20 -45 72l-440 1188q-8 19 -8 31z" />
<glyph unicode="W" horiz-adv-x="1757" d="M80 1296q0 40 24 56q27 16 78 16h103q45 0 63 -22t25 -62l176 -917l72 258q74 272 77 282q14 49 41 129q23 66 95 66h94q74 0 96 -66q6 -16 41 -133q14 -45 21.5 -73.5l22.5 -82l34 -120.5l71 -252l177 909q6 41 24 64q18 20 62 20h102q102 0 102 -68q0 -2 -1 -6t-2 -11 t-1 -13l-270 -1196q-10 -35 -21 -49q-14 -16 -30 -23q-18 -6 -49 -6h-133q-29 0 -50 10q-23 12 -30 25q-9 15 -19 43l-53 172l-53 176l-43 141l-45 154l-24.5 -81l-25.5 -85l-40 -143l-50 -168l-53 -166q-12 -37 -35 -58q-25 -20 -67 -20h-131q-43 0 -66 16q-20 14 -33 62 l-272 1196q-4 20 -4 26z" />
<glyph unicode="X" horiz-adv-x="1333" d="M109 57q0 35 30 78l379 539l-379 565q-25 37 -24 64q0 33 22.5 49t59.5 16h112q76 0 109 -55l262 -408l278 410q25 35 43 43q25 10 74 10h76q76 0 76 -59q0 -35 -39 -92l-367 -523l375 -559q31 -49 31 -78q0 -57 -68 -57h-127q-16 0 -41 4q-12 2 -28 10q-12 6 -23 17 q-6 6 -27 35l-254 395l-270 -395q-23 -33 -47 -52q-20 -14 -63 -14h-103q-67 0 -67 57z" />
<glyph unicode="Y" horiz-adv-x="1259" d="M68 1303q0 34 24 49q27 16 55 16h111q45 0 66 -14q23 -16 36 -45l277 -502l283 504q16 33 38 45q20 12 64 12h90q35 0 57 -18q20 -18 21 -50q0 -33 -29 -79l-389 -691v-440q0 -90 -88 -90h-88q-51 0 -76 20q-23 18 -22 70v424l-410 729q-20 33 -20 60z" />
<glyph unicode="Z" horiz-adv-x="1179" d="M86 78q0 39 35 98l586 965q-150 -2 -269 -6q-76 -2 -219 -2q-57 0 -72 26q-16 29 -16 70v55q0 84 88 84h807q66 0 66 -53q0 -37 -31 -88l-615 -1010q422 18 545 19q57 0 72 -25q14 -23 14 -72v-55q0 -84 -86 -84h-823q-39 0 -59 20q-23 23 -23 58z" />
<glyph unicode="[" horiz-adv-x="661" d="M135 -188v1749q0 51 23 69q22 18 67 19h430q88 0 88 -86v-41q0 -47 -18 -72t-70 -25q-12 0 -40.5 1t-45.5 1q-29 0 -106.5 4.5t-91.5 4.5v-1504q53 2 125 7q98 4 159 4q49 0 70 -27q18 -25 18 -70v-41q0 -86 -88 -86h-411q-43 0 -63.5 6.5t-33.5 26.5q-12 23 -12 60z" />
<glyph unicode="\" horiz-adv-x="806" d="M-41 1356q0 45 45 65l62 29q25 10 36 10h4q41 0 64 -49l557 -1321q0 -2 2 -6l2 -8q8 -18 8 -37q0 -23 -14 -37q-10 -10 -47 -31l-49 -24q-27 -10 -37 -10q-41 0 -64 53l-561 1327q-8 19 -8 39z" />
<glyph unicode="]" horiz-adv-x="661" d="M-80 -154q0 28 6 50q6 23 24.5 35t57.5 12q109 0 285 -11v1504q-14 0 -92 -4.5t-107 -4.5q-16 0 -45 -1t-41 -1q-53 0 -71 25q-16 23 -17 72v41q0 86 88 86h428q46 0 68 -19q23 -18 22 -69v-1749q0 -55 -24.5 -74t-83.5 -19h-410q-88 0 -88 86v41z" />
<glyph unicode="^" horiz-adv-x="1026" d="M59 741l369 670h174l367 -670h-277l-178 336l-178 -336h-277z" />
<glyph unicode="_" horiz-adv-x="755" d="M0 -322q0 31 26.5 43.5t63.5 12.5h572q94 0 94 -56v-67q0 -45 -17 -60q-20 -16 -77 -16h-572q-49 0 -69.5 14.5t-20.5 47.5v81z" />
<glyph unicode="`" horiz-adv-x="473" d="M0 1464q0 31 37 39q33 8 106 8h17h6q72 0 88 -12q20 -12 94 -110q80 -106 111 -158q16 -29 16 -35q0 -41 -80 -41h-84q-25 0 -51 10q-37 18 -53 37q-47 53 -88 107l-4 5q-4 5 -12.5 13t-16.5 19l-47 53q-16 20 -27 35q-12 18 -12 30z" />
<glyph unicode="a" horiz-adv-x="1083" d="M98 279q0 164 88 233.5t246 87.5q23 2 38 5t28 3q27 4 63 6q27 2 82 2h23h26q0 113 -14 148q-18 49 -88 49q-123 0 -295 -43q-4 0 -10 -1t-11 -3q-6 -2 -16 -2h-12q-59 0 -60 65v58q0 72 58 86q37 10 114 20q92 12 123 15q74 4 99 4q213 0 292 -94q46 -52 62 -117 q16 -70 16 -215v-498q0 -46 -18 -68q-18 -20 -64 -20h-114q-31 0 -45.5 16.5t-14.5 57.5q-41 -25 -106 -58q-37 -18 -94 -32q-41 -10 -103 -11q-293 1 -293 306zM344 301q0 -61 18 -98q18 -39 58 -39q51 0 90 10q37 10 90 35q33 16 94 57v166q-94 4 -100 4q-98 0 -156 -10 q-51 -8 -73 -39q-21 -27 -21 -86z" />
<glyph unicode="b" horiz-adv-x="1138" d="M141 90v1231q0 51 21 70q23 18 69 18h93q80 0 79 -88v-330q137 20 252 21q102 0 172 -29q72 -29 113 -88t64 -156q20 -90 20 -233q0 -195 -45 -309q-47 -119 -145 -170q-102 -53 -267 -54q-68 0 -155 7q-89 6 -172 18q-51 10 -74 29q-25 22 -25 63zM403 207 q123 -18 168 -19q74 0 113 22.5t51 63.5q23 80 23 236q0 120 -19 203q-12 49 -34.5 65.5t-90.5 16.5q-84 0 -211 -27v-561z" />
<glyph unicode="c" horiz-adv-x="978" d="M115 492q0 158 22 260q23 100 74 155q53 55 139 80q88 25 232 25q92 0 174 -11q51 -2 75.5 -12t30.5 -20q6 -12 6 -37v-4v-4q0 -92 -22 -127q-18 -29 -51 -29q-12 0 -112.5 12.5t-162.5 12.5q-68 0 -86 -19q-20 -20 -35 -78q-16 -76 -16 -204q0 -98 8 -197q6 -59 31 -82 q23 -20 98 -20q57 0 161.5 12t113.5 12q31 0 49 -20q8 -8 16 -50q8 -39 8 -90q0 -37 -18 -53q-16 -12 -94 -22q-66 -8 -174 -9q-147 0 -230 23q-89 25 -141 80q-51 55 -74 155q-22 103 -22 261z" />
<glyph unicode="d" horiz-adv-x="1142" d="M115 469q0 270 108 408q106 133 330 133q92 0 192 -17v328q0 51 20.5 69.5t70.5 18.5h90q45 0 63 -27q18 -28 19 -61v-1229q0 -92 -82 -92h-95q-57 0 -75 47q-147 -74 -270.5 -74t-202.5 60q-84 63 -127 172q-41 104 -41 264zM379 444q0 -131 39 -194q40 -61 110 -62 q49 0 107 25q61 25 110 70v483q-104 27 -200 27q-57 0 -82 -17q-84 -49 -84 -332z" />
<glyph unicode="e" horiz-adv-x="1071" d="M115 485q0 138 18 234q18 94 64 158q51 70 135 102.5t219 32.5q125 0 205 -31t127 -96q45 -63 59 -150q16 -94 16 -203q0 -53 -6 -81q-6 -25 -24 -35q-16 -8 -56 -8h-499v-29q0 -76 14 -119q14 -45 53 -63q55 -23 123 -23q106 0 250 33q2 0 8 2t13 4q10 2 26 6q8 2 25 2 q20 0 35 -18q12 -16 20 -45q4 -25 4 -60v-8q0 -41 -14 -61q-16 -23 -60 -29q-145 -27 -309 -27q-115 0 -199 25q-82 25 -133 72q-63 61 -88 157q-26 106 -26 258zM373 588h336v39q0 104 -29 141q-31 39 -129 39q-72 0 -111 -19q-37 -16 -53 -61q-14 -41 -14 -121v-18z" />
<glyph unicode="f" horiz-adv-x="780" d="M70 836v88q0 31 14 45q12 12 45 12h51v82q0 76 6 119q6 45 19 71q14 33 28 52q51 70 127 94q84 27 226 26q114 0 147 -18t33 -64v-14q0 -94 -27 -127q-12 -14 -34 -14q-14 0 -58 8q-55 10 -116.5 10t-73.5 -20q-14 -20 -15 -123v-82h205q37 0 53 -12q14 -12 15 -45v-82 q0 -45 -16.5 -61.5t-57.5 -16.5h-199v-672q0 -49 -14 -69q-16 -23 -57 -23h-129q-37 0 -49.5 18.5t-12.5 61.5v684h-61q-49 0 -49 72z" />
<glyph unicode="g" horiz-adv-x="1124" d="M113 465q0 137 28 248q27 106 82 170q43 51 96 80q57 31 125 38q82 10 185 11q180 0 280 -8q49 -2 66 -23q16 -18 16 -70v-1005q0 -86 -8 -119q-8 -35 -35 -78q-35 -53 -88 -86q-47 -29 -129 -49q-74 -18 -160 -18q-102 0 -213 12q-119 12 -170 26q-61 18 -61 95 q0 63 14 94q18 39 54 39q4 0 51 -10q89 -22 172 -31q92 -10 168 -10q66 0 98 22q29 20 39 72q6 37 6 125v10q-139 -27 -237 -27q-137 0 -220 52q-84 53 -120 161q-39 113 -39 279zM379 475q0 -76 12 -162t37 -110.5t90 -24.5q94 0 211 35v578q-135 4 -162 4q-76 0 -104 -15 q-31 -16 -45 -49q-16 -31 -29 -106q-10 -60 -10 -150z" />
<glyph unicode="h" horiz-adv-x="1073" d="M113 82v1239q0 51 20 70q23 18 70 18h92q41 0 61 -27q18 -25 19 -61v-379q139 70 276 70q172 0 244 -86q72 -88 72 -205v-629q0 -51 -17 -69q-18 -23 -63 -23h-109q-74 0 -73 92v524v9q0 86 -3 108q-2 33 -12 45q-10 16 -65 17q-119 0 -250 -95v-608q0 -51 -17 -69 q-18 -23 -63 -23h-109q-73 0 -73 82z" />
<glyph unicode="i" horiz-adv-x="563" d="M147 92v799q0 51 21 70q25 20 70 20h96q41 0 61.5 -26.5t20.5 -63.5v-799q0 -92 -82 -92h-78q-59 0 -84 18.5t-25 73.5zM147 1219v71q0 51 21 70q25 20 70 20h96q39 0 61 -28q20 -27 21 -62v-71q0 -92 -82 -93h-78q-59 0 -84 19t-25 74z" />
<glyph unicode="j" horiz-adv-x="559" d="M-45 -276q0 37 20 61q18 23 45 22q15 0 50 -6q33 -6 51 -6q25 0 31 21q8 29 8 82v993q0 53 20.5 71.5t69.5 18.5h96q45 0 64 -27q18 -29 18 -63v-905q0 -158 -16 -224q-23 -90 -113 -143t-205 -53q-49 0 -80 6q-33 6 -45 25q-14 20 -14 73v54zM160 1217v71q0 49 22 72 q20 20 68 20h96q45 0 63.5 -28.5t18.5 -63.5v-71q0 -49 -18.5 -70t-63.5 -21h-80q-41 0 -63 7q-25 6 -33 26q-10 25 -10 58z" />
<glyph unicode="k" horiz-adv-x="1050" d="M141 92v1229q0 51 21 70q23 18 69 18h93q80 0 79 -88v-659l267 282q27 27 43 31q20 6 59 6h111q76 0 75 -55q0 -31 -49 -74l-311 -285l422 -473q18 -20 18 -39q0 -25 -20 -39q-23 -16 -55 -16h-134q-35 0 -49 10q-16 10 -43 41l-334 402v-361q0 -92 -69 -92h-131 q-33 0 -47.5 22.5t-14.5 69.5z" />
<glyph unicode="l" horiz-adv-x="550" d="M143 92v1229q0 51 20.5 69.5t69.5 18.5h93q41 0 61 -27q18 -25 19 -61v-1229q0 -51 -17 -69q-18 -23 -63 -23h-74q-59 0 -84 18.5t-25 73.5z" />
<glyph unicode="m" horiz-adv-x="1566" d="M143 90v803q0 49 23 68q25 20 67 20h93q33 0 45 -12q10 -10 24 -51q158 94 287 94q138 0 197 -111q72 49 151 80q76 31 164 31q119 0 178 -78q57 -76 58 -209v-635q0 -49 -17 -67q-18 -23 -63 -23h-74q-43 0 -64 6q-23 6 -34 27q-10 18 -11 57v531q0 109 -10 143 q-12 31 -35 31q-43 0 -92 -31q-43 -27 -112 -80v-594q0 -49 -17 -67q-18 -23 -63 -23h-74q-43 0 -64 6q-23 6 -34 27q-10 18 -11 57v531q0 109 -10 143q-12 31 -35 31q-43 0 -92 -31q-43 -27 -112 -80v-594q0 -49 -17 -67q-18 -23 -63 -23h-105q-49 0 -63.5 20.5t-14.5 69.5 z" />
<glyph unicode="n" horiz-adv-x="1132" d="M143 90v803q0 49 23 68q25 20 67 20h93q29 0 47 -14q12 -10 22 -49q74 49 133 69q71 25 154 25q121 0 188 -41q72 -43 99 -107q29 -68 28 -137v-637q0 -46 -18 -67q-18 -23 -64 -23h-71q-41 0 -64 6q-20 6 -32.5 26.5t-12.5 57.5v531q0 119 -14 145q-16 31 -64 31 q-70 0 -122 -27q-55 -28 -129 -86v-594q0 -49 -17 -67q-18 -23 -63 -23h-74q-43 0 -64 6q-23 6 -34 27q-11 18 -11 57z" />
<glyph unicode="o" horiz-adv-x="1167" d="M115 492q0 137 30 235q31 100 95 166q111 119 346 119q113 0 202 -29q84 -27 144 -90q68 -70 94 -166q29 -102 29 -235q0 -141 -29 -234q-31 -100 -94 -166q-113 -119 -346 -119q-236 0 -346 119q-63 66 -95 166q-30 99 -30 234zM379 491.5q0 -167.5 39 -237.5 q20 -35 53 -49q31 -14 115 -15q86 0 116 15q33 14 52 49q37 68 37 238t-37 237q-18 37 -52 51q-31 14 -116 15q-84 0 -115 -15q-35 -16 -53 -51q-39 -70 -39 -237.5z" />
<glyph unicode="p" horiz-adv-x="1157" d="M143 -336v1229q0 51 20.5 69.5t69.5 18.5h93q37 0 49 -14q14 -16 22 -54q92 49 162 72q84 27 152 27q137 0 217 -80q66 -70 90 -170q25 -104 24 -262q0 -78 -6 -140q-8 -72 -16 -104q-10 -39 -35 -86q-53 -98 -156 -147q-104 -49 -237 -50q-96 0 -186 21v-330 q0 -51 -17 -70q-18 -23 -63 -22h-74q-61 0 -84 16q-25 19 -25 76zM406 217q88 -27 190 -27q66 0 102 23q41 25 56 63q18 47 20 89q4 66 4 129q0 66 -6 133q-4 53 -14 100q-15 68 -80 68q-57 0 -131 -33q-77 -34 -141 -74v-471z" />
<glyph unicode="q" horiz-adv-x="1128" d="M115 467q0 139 24 238q25 96 84 172q45 57 88 84q49 29 107 40q51 10 155 11q166 0 340 -15q41 -4 60 -18q18 -15 18 -55v-1260q0 -49 -18 -70q-18 -23 -64 -22h-71q-61 0 -84 16q-25 18 -25 76v365q-63 -35 -104 -43q-55 -12 -119 -13q-102 0 -176 31q-78 33 -123 92 q-49 66 -70 152q-22 96 -22 219zM379 436q0 -127 20 -174q31 -72 123 -72q100 0 207 89v497q-92 12 -184 12q-47 0 -80 -14q-29 -12 -43 -39q-43 -80 -43 -299z" />
<glyph unicode="r" horiz-adv-x="815" d="M143 90v803q0 49 23 68q25 20 67 20h97q57 0 76 -72q16 8 35.5 19.5l33.5 19.5l23 13q20 10 80 28q45 14 96 15q39 0 63 -17q27 -18 27 -53v-70q0 -43 -16 -69q-14 -25 -60 -25q-70 0 -110 -8q-51 -10 -84 -27q-53 -27 -82 -45v-600q0 -46 -19 -67q-18 -23 -63 -23h-78 q-43 0 -64 6q-23 6 -34 27q-11 18 -11 57z" />
<glyph unicode="s" horiz-adv-x="1021" d="M133 696q0 158 72 230q53 53 137 67q80 14 256 15q82 0 152 -4q61 -4 79 -23q23 -23 23 -78q0 -74 -8 -88q-20 -39 -68 -39q-20 0 -94 8.5t-176 8.5q-45 0 -78 -5q-23 -2 -33 -20q-8 -14 -8 -55q0 -27 10 -41q6 -10 56 -29q29 -12 102 -35q31 -8 55.5 -16l44.5 -14 q76 -25 136 -62q51 -33 75 -84q25 -52 25 -141q0 -125 -35 -195q-33 -66 -117 -94q-80 -27 -233 -27q-184 0 -293 15q-39 6 -47 20q-10 16 -10 74v37q0 43 12 69q12 25 47 25q6 0 59 -6q100 -12 111 -12q78 -4 150 -4q68 0 83 14q18 15 19 61q0 55 -12 68q-10 12 -70 31 q-37 10 -139 45q-86 27 -137 53q-51 23 -86 57q-29 29 -46 74q-14 41 -14 100z" />
<glyph unicode="t" horiz-adv-x="833" d="M90 825v88q0 68 55 68h52v166q0 53 20 72q22 18 68 18h92q41 0 61.5 -26.5t20.5 -63.5v-166h200q40 0 56 -12q14 -12 14 -54v-71q0 -47 -10 -64q-8 -14 -39 -14h-221v-412q0 -125 12 -149q8 -16 31 -17q29 0 86 15q66 16 82 16q31 0 43 -18.5t12 -38.5v-74 q0 -55 -18.5 -75.5t-67.5 -26.5q-74 -8 -107 -9q-4 0 -28.5 -1t-42.5 -1q-76 0 -131 17q-51 14 -80 53t-41 98q-12 61 -12 156v467h-58q-49 0 -49 59z" />
<glyph unicode="u" horiz-adv-x="1132" d="M135 258v633q0 46 19 67q18 23 63 23h74q61 0 83.5 -16.5t22.5 -73.5v-529q0 -115 15 -141q18 -33 63 -33q65 0 117 25q45 20 135 88v590q0 46 18 67q18 23 64 23h74q61 0 83.5 -16.5t22.5 -73.5v-803q0 -49 -20 -68q-25 -20 -68 -20h-92q-51 0 -70 68q-141 -96 -288 -97 q-119 0 -189 43q-72 45 -98 105q-29 67 -29 139z" />
<glyph unicode="v" horiz-adv-x="1050" d="M72 928q0 53 69 53h111q43 0 67 -14q20 -12 33 -56l176 -583l177 581q6 25 20 43q14 16 33 23q20 6 49 6h104q70 0 70 -53q0 -18 -6 -33l-303 -821q-16 -43 -37 -58q-23 -16 -66 -16h-84q-35 0 -53 6q-16 6 -28.5 20.5t-24.5 47.5l-301 823q-6 19 -6 31z" />
<glyph unicode="w" horiz-adv-x="1492" d="M92 918q0 63 84 63h90q45 0 68 -16q25 -18 33 -60l127 -559l122 416q12 39 35 51q22 12 68 12h55q43 0 68 -12q20 -10 35 -51l122 -416l127 559q12 47 33 61.5t68 14.5h90q82 0 82 -63q0 -18 -4 -35l-254 -832q-10 -31 -29 -41q-20 -10 -53 -10h-80q-43 0 -64 16 q-18 14 -36 72l-134 389l-131 -389q-8 -33 -22 -53q-14 -23 -29 -27q-25 -8 -51 -8h-78q-39 0 -55.5 8t-28.5 43l-254 832q-4 17 -4 35z" />
<glyph unicode="x" horiz-adv-x="1124" d="M96 55q0 9 6 25l21 31l18 26l17 23l258 334l-238 321q-61 83 -61 111q0 55 71 55h99q53 0 73 -14q23 -16 54 -66l149 -227l148 227q33 51 57.5 65.5t75.5 14.5h94q70 0 70 -55q0 -28 -62 -111l-235 -321l276 -359q43 -55 43 -80q0 -55 -72 -55h-127q-29 0 -49 8 q-18 8 -32 31l-187 283l-190 -289q-12 -20 -30.5 -26.5t-49.5 -6.5h-127q-70 0 -70 55z" />
<glyph unicode="y" horiz-adv-x="1077" d="M78 926q0 25 22 41q20 14 50 14h92q63 0 82 -10q20 -12 32 -47l185 -580l174 557q16 49 39 64q27 16 73 16h88q29 0 49.5 -14.5t20.5 -44.5q0 -16 -12 -48l-445 -1234q-12 -37 -34.5 -49.5t-65.5 -12.5h-102q-72 0 -72 53q0 18 14 50l154 362l-336 850q-8 15 -8 33z" />
<glyph unicode="z" horiz-adv-x="1011" d="M106 74v35q0 39 35 90l422 577q-256 -18 -340 -18q-57 0 -71 26q-16 29 -17 70v41q0 86 88 86h598q31 0 51 -16q18 -15 19 -50v-61q0 -35 -25 -70l-426 -577q252 16 377 16q55 0 71.5 -26.5t16.5 -69.5v-41q0 -86 -88 -86h-631q-37 0 -57 20q-23 23 -23 54z" />
<glyph unicode="{" horiz-adv-x="794" d="M102 680q96 84 123 117q31 39 47 94q14 49 21 145l6 119q4 82 8 123q6 63 25 119q20 59 45 98q35 55 102 90q66 35 142 47q74 12 145 13q66 0 65 -56v-57q0 -25 -20 -37q-18 -12 -88 -29q-78 -18 -102 -26q-31 -10 -50 -43q-16 -27 -28 -129q-12 -98 -13 -226 q-2 -90 -16 -149q-12 -57 -43 -100q-33 -47 -102 -113q70 -66 102 -113q31 -43 43 -100q14 -63 16 -150q0 -129 13 -225q12 -100 28 -129q12 -25 39 -37q35 -16 66 -22l34.5 -6t45.5 -11q39 -8 55 -22q20 -12 20 -37v-57q0 -55 -65 -56q-121 0 -225 33q-109 35 -164 117 q-25 39 -45 98q-18 55 -25 121q-4 41 -8 123q0 12 -2 35.5t-3 43t-1 38.5q-6 96 -21 145q-16 55 -47 94q-27 33 -123 117z" />
<glyph unicode="|" horiz-adv-x="395" d="M53 -193v1749q0 51 23 70q22 18 67 19h66q45 0 63 -27q18 -28 19 -62v-1749q0 -92 -82 -92h-47q-43 0 -64 6q-23 6 -35 27q-10 18 -10 59z" />
<glyph unicode="}" horiz-adv-x="794" d="M-37 -172q0 25 21 37q20 14 90 31q90 20 100 24q31 12 49 43q39 70 41 354q2 66 10 123q6 47 25 84q20 43 47 74q27 33 80 82q-52 52 -80 86q-31 39 -47 70q-18 37 -25 84q-8 57 -10 122q-2 285 -41 355q-18 31 -49 43q-10 4 -100 24q-70 16 -90 31q-20 12 -21 37v57 q0 55 66 56q72 0 145 -13q76 -12 141 -47q68 -35 103 -90q33 -45 47 -98q16 -61 22 -119l11 -123q2 -20 3 -59t1 -60q6 -80 14 -116q10 -51 25 -78q16 -29 51 -68q18 -20 100 -94q-82 -72 -123 -119q-31 -37 -47 -92q-14 -49 -20 -145q0 -20 -1 -58.5t-3 -58.5 q-2 -35 -11 -123q-4 -47 -24 -119q-12 -47 -45 -100q-55 -82 -164 -117q-104 -33 -225 -33q-66 0 -66 56v57z" />
<glyph unicode="~" horiz-adv-x="712" d="M0 821q0 29 27 74q80 150 200 149q35 0 76 -10q37 -9 98 -30q59 -20 84 -21q12 0 31 21q18 23 35 32q12 10 33 11h73q55 0 56 -48q0 -27 -19 -63q-74 -154 -202 -154q-39 0 -70 9q-29 8 -76 24q-14 4 -34.5 13.5t-28.5 11.5q-22 6 -43 6q-14 0 -27 -6q-10 -6 -20 -19 q-6 -8 -29 -30q-16 -16 -41 -17h-70q-53 0 -53 47z" />
<glyph unicode="&#xa1;" horiz-adv-x="614" d="M117 1192q0 20 14 35l141 141q14 14 31 14q18 0 33 -14l141 -141q14 -14 15 -33q0 -20 -15 -35l-141 -141q-14 -14 -31 -14q-18 0 -33 14l-141 141q-14 15 -14 33zM178 45v2l17 768q2 45 20 68q18 25 61 24h56q57 0 74 -16q18 -18 18 -76l16 -768v-4q0 -47 -22 -66 q-22 -18 -68 -18h-90q-39 0 -61 27q-21 22 -21 59z" />
<glyph unicode="&#xa2;" horiz-adv-x="976" d="M115 686q0 147 18.5 239.5t65.5 152t120.5 84t198.5 30.5v100q0 37 10 45q14 10 45 11h19q47 0 47 -56v-100q16 0 115 -10q76 -6 94 -18.5t18 -47.5v-4v-2q0 -92 -22 -127q-18 -27 -51 -27q-6 0 -56 7q-66 8 -98 10v-570l40 5.5t32 3.5q27 2 51 6q14 2 31 2q31 0 49 -19 q6 -6 16 -49q8 -35 8 -88q0 -41 -16 -51q-20 -14 -96 -23q-25 -4 -47 -4q-41 0 -68 -2v-104q0 -33 -10 -47q-10 -12 -37 -13h-31q-27 0 -35 10.5t-8 49.5v104q-121 6 -199 31q-76 25 -122 84q-45 57 -63.5 149.5t-18.5 237.5zM381 686q0 -92 8 -190q2 -43 19 -66 q14 -20 34 -27q8 -2 76 -6v582q-63 0 -86 -16q-20 -14 -35 -78q-16 -72 -16 -199z" />
<glyph unicode="&#xa3;" horiz-adv-x="1241" d="M115 131q0 47 30 78q25 25 123 43q29 143 29 270q0 51 -2 70h-41q-49 0 -69.5 20.5t-20.5 67.5v47q0 80 78 80h43q-16 125 -17 219q0 66 23 139q20 66 63 119q49 61 127 86q77 25 197 25q117 0 313 -25q82 -12 82 -72v-14q4 -4 4 -20q0 -39 -14 -56q-2 -25 -14 -49 q-10 -18 -21 -24q-12 -6 -33 -7q-2 0 -8 1t-20.5 4.5t-28.5 5.5q-63 10 -113 16q-78 8 -131 8q-66 0 -96 -14q-33 -14 -45 -53q-12 -37 -12 -111q0 -31 6 -88q2 -23 5 -53.5t3 -36.5h229q94 0 95 -80v-31q0 -61 -19 -82q-18 -23 -76 -22h-219q0 -31 -10 -109 q-9 -71 -25 -141q-14 -70 -34 -119l75 -18q68 -16 72 -17q33 -6 59 -6q68 0 129 19q47 14 113 45q51 25 66 24q57 0 57 -63v-70q0 -49 -14 -69q-16 -23 -60 -45q-121 -66 -258 -66q-52 0 -86 6q-66 12 -104 23q-23 6 -105 26q-33 8 -78 8q-39 0 -102 -18q-57 -16 -80 -16 q-37 0 -43 28l-20 95q-2 6 -2 22z" />
<glyph unicode="&#xa5;" horiz-adv-x="1259" d="M68 1303q0 34 24 49q27 16 55 16h111q45 0 66 -14q23 -16 36 -45l277 -502l283 504q16 33 38 45q20 12 64 12h90q35 0 57 -18q20 -18 21 -50q0 -33 -29 -79l-336 -594h154q34 0 61 -19q27 -18 27 -61v-23q0 -46 -18 -67q-18 -20 -70 -21h-207v-108h207q34 0 61 -19 q27 -18 27 -61v-23q0 -46 -18 -67q-18 -20 -70 -21h-207v-47q0 -90 -88 -90h-88q-51 0 -76 20q-23 18 -22 70v47h-207q-33 0 -53.5 10.5t-26.5 26.5q-8 25 -8 51v23q0 43 28 61q27 18 60 19h207v108h-207q-33 0 -53.5 10.5t-26.5 26.5q-8 25 -8 51v23q0 43 28 61 q27 18 60 19h143l-346 616q-20 33 -20 60z" />
<glyph unicode="&#xa6;" horiz-adv-x="397" d="M104 -68v662h191v-662h-191zM104 770v662h191v-662h-191z" />
<glyph unicode="&#xa7;" horiz-adv-x="917" d="M92 84v45q0 43 16.5 69.5t71.5 26.5q4 0 20.5 -1t50.5 -2t71 -1v926q-37 0 -71 -1t-50.5 -2t-20.5 -1q-57 0 -71 26q-16 29 -17 70v45q0 47 23 66q20 18 65 18h557q45 0 66 -18q23 -18 22 -66v-45q0 -41 -16 -70q-14 -27 -72 -26q-4 0 -20.5 1t-50 2t-70.5 1v-926 q37 0 70.5 1t50 2t20.5 1q55 0 71.5 -26.5t16.5 -69.5v-45q0 -47 -22 -66q-20 -18 -66 -18h-557q-45 0 -65 18q-23 19 -23 66z" />
<glyph unicode="&#xa8;" horiz-adv-x="636" d="M0 1198v137q0 29 16 45q18 18 43 19h134q25 0 43 -19q16 -16 16 -45v-137q0 -27 -16 -43q-18 -18 -43 -18h-134q-23 0 -41 18t-18 43zM385 1198v137q0 29 16 45q18 18 43 19h134q25 0 43 -19q16 -16 16 -45v-137q0 -25 -18.5 -43t-40.5 -18h-134q-23 0 -41 18t-18 43z " />
<glyph unicode="&#xa9;" horiz-adv-x="1961" d="M123 489.5q0 155.5 22 284.5q18 109 72 217q45 92 125 183q209 229 625 229q180 0 319 -37t241.5 -108.5t170.5 -178.5q31 -45 63 -123q27 -59 45 -137q16 -66 27 -153q8 -72 8 -166q0 -311 -98 -518q-96 -203 -293 -306q-193 -100 -485 -100q-414 0 -623 229 q-82 92 -125 181q-51 109 -72 219q-22 129 -22 284.5zM385 489.5q0 -294.5 115 -507.5q31 -59 100.5 -104.5t169.5 -70.5q90 -23 219 -22q123 0 213 22q98 25 164 70q68 47 98 107q119 225 119 497q0 104 -16 207q-14 90 -41 166q-25 71 -62 141q-45 94 -170 146 q-129 53 -307 53q-129 0 -219 -23q-96 -25 -168 -69q-70 -45 -100 -105q-115 -213 -115 -507.5zM610 461q0 193 45 295q47 106 138 143q92 37 243 37q72 0 164 -6q43 -2 64 -17q18 -12 18 -41v-43q0 -41 -12 -59q-10 -16 -51 -16q-6 0 -20.5 1t-27.5 1q-16 2 -30.5 2h-30.5 q-12 0 -26.5 1t-20.5 1q-119 0 -152 -17q-47 -18 -63 -75q-16 -55 -19 -150v-47q0 -6 -1 -20.5t-1 -22.5q0 -92 27 -166q25 -68 100 -80q33 -4 107 -4h2q6 0 20.5 1t26.5 1h30.5t30.5 2q12 0 26.5 1t21.5 1q41 0 51 -16q12 -18 12 -59v-43q0 -29 -18 -41q-20 -14 -64 -17 q-92 -6 -164 -6q-98 0 -174 16q-96 20 -153 82q-57 59 -78 148q-21 84 -21 213z" />
<glyph unicode="&#xaa;" horiz-adv-x="778" d="M90 944q0 137 113 182q43 18 112 25q51 4 181 8q0 53 -13 76q-18 25 -53 25q-66 0 -213 -29q-16 -4 -18 -4q-23 0 -37 14q-12 12 -12 31v37q0 49 45 57q114 25 227 25q58 0 117 -13q55 -12 88 -47q31 -31 43 -71q10 -33 10 -132v-299q0 -59 -59 -59h-76q-33 0 -45 41 q-106 -57 -205 -57q-101 0 -154 49q-51 49 -51 141zM268 956q0 -74 45 -73q80 0 183 59v90q-6 0 -15.5 1t-13.5 1h-33q-63 0 -100 -6q-33 -6 -51 -24q-15 -15 -15 -48z" />
<glyph unicode="&#xab;" horiz-adv-x="1073" d="M111 477.5q0 14.5 39 75.5q63 102 88 137l77 111q18 27 37 35t66 8q135 0 135 -51q0 -8 -10 -33l-170 -283l170 -282q10 -25 10 -33q0 -51 -135 -51q-43 0 -62 8q-20 8 -41 35l-75 108q-25 35 -90 139q-39 62 -39 76.5zM541 477.5q0 18.5 37 75.5q16 27 96 143l71 105 q20 29 37 35q18 8 66 8q78 0 106 -15q31 -15 31 -36q0 -8 -12 -33l-170 -283l170 -282l8 -17q4 -12 4 -16q0 -18 -31 -35q-33 -16 -106 -16q-45 0 -64 8q-23 10 -39 35l-83 122q-66 96 -84 125q-37 58 -37 76.5z" />
<glyph unicode="&#xad;" horiz-adv-x="950" d="M854 522q0 -45 -16 -59q-20 -16 -78 -17h-572q-49 0 -69.5 14.5t-20.5 47.5v94q0 29 29 41q33 14 61 14h572q94 0 94 -55v-80z" />
<glyph unicode="&#xae;" horiz-adv-x="1961" d="M123 489.5q0 155.5 22 284.5q18 109 72 217q45 92 125 183q209 229 625 229q172 0 317 -37q141 -37 246 -109q104 -74 172 -180q139 -223 139 -577q0 -311 -98 -518q-96 -203 -293 -306q-193 -100 -485 -100q-414 0 -623 229q-82 92 -125 181q-51 109 -72 219 q-22 129 -22 284.5zM385 489q0 -164 33 -288q35 -135 82 -219q51 -92 180 -146q127 -51 311 -51q182 0 303 51q125 53 170 148q119 225 119 497q0 104 -16 207q-14 90 -41 166q-25 71 -62 141q-45 94 -170 146q-129 53 -307 53q-129 0 -219 -23q-96 -25 -168 -69 q-70 -45 -100 -105q-45 -82 -82 -221q-33 -125 -33 -287zM655 102v777q0 41 20.5 53t57.5 12h266q115 0 162 -12q51 -14 90 -53q78 -74 78 -258q0 -217 -182 -254l207 -234q23 -27 22 -53q0 -45 -59 -45h-86q-35 0 -53 8q-22 9 -43 31l-238 284h-31v-256q0 -68 -71 -67h-62 q-43 0 -59 14q-19 16 -19 53zM866 530h152q68 0 86 23q14 20 14 78q0 117 -33 131q-14 8 -110 8h-49q-37 0 -47 -8q-12 -9 -13 -31v-201z" />
<glyph unicode="&#xaf;" horiz-adv-x="755" d="M0 1777q0 31 26.5 43.5t63.5 12.5h572q94 0 94 -56v-67q0 -45 -17 -60q-20 -16 -77 -16h-572q-49 0 -69.5 14.5t-20.5 47.5v81z" />
<glyph unicode="&#xb0;" horiz-adv-x="817" d="M147 1178q0 74 35 139q33 61 94 98q57 35 134 35q70 0 131 -37q63 -39 96 -100q35 -66 35 -135.5t-35 -135.5q-33 -61 -96 -100q-61 -37 -131 -37t-131 37q-63 39 -97 100q-35 66 -35 136zM293 1178q0 -47 35 -86q33 -37 82 -37q53 0 86 35q35 39 34 88q0 53 -34.5 87.5 t-85.5 34.5q-49 0 -84 -36q-33 -35 -33 -86z" />
<glyph unicode="&#xb1;" horiz-adv-x="1122" d="M111 70h903v-176h-903v176zM111 571v179h358v348h186v-348h359v-179h-359v-348h-186v348h-358z" />
<glyph unicode="&#xb2;" d="M147 84v70q0 27 9 45q12 29 24 43q31 37 35 41l55 57l219 231q84 88 119 129q88 111 123 170q39 66 39 146q0 88 -30.5 118.5t-118.5 30.5q-66 0 -115 -6q-10 -2 -30.5 -4t-37 -4t-30.5 -4q-16 -4 -40 -8t-30 -6q-29 -4 -33 -5q-55 0 -65 56l-15 90q-2 4 -2 18 q0 66 84 78q197 25 314 25q133 0 229 -37q94 -37 143 -113q49 -78 49 -194q0 -80 -26 -174q-25 -84 -74 -162q-59 -100 -162 -203l-305 -291q55 4 152 6l200 6q66 2 134 3q55 0 73 -27q16 -25 17 -70v-55q0 -84 -90 -84h-730q-43 0 -63.5 18.5t-20.5 65.5z" />
<glyph unicode="&#xb3;" d="M152 109q0 16 2 20l30 100q18 53 64 54q6 0 31 -4q197 -72 333 -72q70 0 111 20.5t57.5 65.5t16.5 117q0 86 -35 120q-33 33 -109 45q-23 4 -84 9q-35 2 -125 2h-36q-57 0 -91 14q-27 12 -26 47v96q0 63 74 64h131q106 0 161 16q49 14 70 62q18 43 18 131 q0 86 -38.5 120.5t-149.5 34.5q-86 0 -174 -14q-20 -3 -49 -8l-37 -6q-39 0 -45 24l-27 127q-2 6 -2 23q0 23 31 45q18 10 111 22q80 10 186 11q233 0 344 -86t111 -277q0 -102 -27 -170q-27 -66 -92 -123q94 -43 135 -121q39 -76 39 -204q0 -225 -113 -332 q-115 -109 -344 -109q-84 0 -204.5 18.5t-198.5 59.5q-49 25 -49 58z" />
<glyph unicode="&#xb4;" horiz-adv-x="473" d="M0 1196q0 6 16 35q43 72 113 160q76 98 92 108q15 12 92 12q104 0 133 -12t29 -35q0 -10 -22 -43l-101 -118q-102 -121 -133 -136q-31 -12 -57 -12h-68q-49 0 -71.5 6t-22.5 35z" />
<glyph unicode="&#xb6;" horiz-adv-x="1558" d="M127 1081q0 123 33 242q35 125 104 188q53 51 101 70q52 22 135 31q74 8 231 8h604q96 0 97 -80v-29q0 -57 -18.5 -81.5t-78.5 -24.5h-65v-1591h65q96 0 97 -82v-27q0 -57 -18.5 -81.5t-78.5 -24.5h-280v1835h-189v-1835h-282q-51 0 -71.5 20.5t-20.5 67.5v45q0 39 28 61 q27 20 64 21h67v786q-100 0 -174 12.5t-147 55.5q-98 57 -150 174q-53 122 -53 239z" />
<glyph unicode="&#xb7;" horiz-adv-x="593" d="M469 649l-141 -141q-14 -14 -31 -14q-18 0 -33 14l-141 141q-14 14 -14 33q0 20 14 35l141 141q14 14 31 14q18 0 33 -14l141 -141q14 -14 14 -33q0 -21 -14 -35z" />
<glyph unicode="&#xb8;" horiz-adv-x="382" d="M0 -258q0 14 8 22q4 14 66 82q90 96 96 103q31 34 43 43q10 8 31 8h102q39 0 39 -43q0 -16 -16 -39l-129 -170q-18 -27 -41 -41q-18 -12 -54 -12h-79q-41 0 -53.5 12t-12.5 31v4z" />
<glyph unicode="&#xb9;" horiz-adv-x="1251" d="M340 1192q0 27 16.5 43t46.5 29q145 63 197 79q77 25 135 25q45 0 63.5 -24.5t18.5 -61.5v-1192q0 -46 -18 -67q-18 -23 -64 -23h-71q-41 0 -64 6q-20 6 -32.5 26.5t-12.5 57.5v1018q-115 -57 -145 -57q-47 0 -54 34l-14 89v10l-1 4z" />
<glyph unicode="&#xba;" horiz-adv-x="829" d="M90 1067q0 160 84 244q80 76 240 75q162 0 241 -75q84 -80 84 -244q0 -86 -20 -141q-23 -59 -64 -99q-82 -76 -241 -75q-158 0 -240 75q-84 80 -84 240zM281 1067q0 -100 22 -139q10 -18 33 -29q18 -8 77.5 -8t78.5 8q25 10 34 29q25 37 25 139q0 104 -27 143 q-12 20 -32 27q-29 8 -78 8t-78 -8q-20 -6 -33 -27q-10 -14 -16 -55q-6 -37 -6 -88z" />
<glyph unicode="&#xbb;" horiz-adv-x="1073" d="M88 162q0 12 2 16q0 2 4 7t6 10l170 282l-170 283q-12 25 -12 33q0 18 31 34q33 16 106 17q47 0 66 -8q16 -6 37 -35l78 -111q25 -35 88 -137q39 -61 38 -76q0 -12 -22 -51q-2 -2 -51 -80l-66 -96l-65 -96q-16 -25 -39 -35q-18 -8 -64 -8q-74 0 -106 16q-31 17 -31 35z M520 162q0 8 10 33l170 282l-170 283q-10 25 -10 33q0 51 135 51q47 0 66 -8q16 -6 37 -35l78 -113q68 -98 90 -135q37 -57 37 -76q0 -12 -25 -55q-12 -20 -51 -80l-64 -92l-65 -96q-16 -25 -39 -35q-18 -8 -64 -8q-135 0 -135 51z" />
<glyph unicode="&#xbc;" horiz-adv-x="1736" d="M147 1274q0 23 15 35q10 8 35 20l43 19q8 4 24.5 9t22.5 7q4 2 47 12q25 6 45 6q29 0 47 -18q20 -20 20 -47v-582q0 -66 -67 -65h-37q-23 0 -33 2t-26 10q-8 4 -17 20q-6 12 -6 33v463q-2 0 -11 -4t-16 -6q-18 -6 -24 -6q-20 0 -31 8q-12 8 -18 22.5t-10 30.5 q-3 11 -3 31zM383 12q0 16 6 29l748 1376q8 14 22.5 24.5t32.5 10.5q12 0 25 -6l28 -14l25 -17q8 -6 24 -14q10 -4 17 -19q4 -8 4 -24q0 -10 -2 -15q-2 -2 -4 -7t-2 -7l-746 -1376q-8 -16 -24 -27q-14 -8 -33 -8h-12q-2 0 -11 4l-80 47q-10 6 -14 19q-4 16 -4 24zM1049 274 q0 12 6 25q8 16 12 20l291 363q16 16 24 23q10 8 31 8h60q29 0 47 -18.5t18 -47.5v-332q27 0 37 -2q14 -2 29 -10q10 -6 18 -20q6 -12 6 -37q0 -28 -6 -43q-6 -16 -14.5 -24.5t-28.5 -12.5q-12 -2 -41 -2v-98q0 -66 -65 -66h-23q-37 0 -57 12q-23 12 -23 54v98h-246 q-16 0 -32 8q-14 6 -21 21q-8 16 -10 26l-8 31q-2 4 -2 12q0 2 -1 6t-1 6zM1239 307q20 2 65.5 2t65.5 2v158z" />
<glyph unicode="&#xbd;" horiz-adv-x="1736" d="M147 1274q0 23 15 35q10 8 35 20l43 19q8 4 24.5 9t22.5 7q4 2 47 12q25 6 45 6q29 0 47 -18q20 -20 20 -47v-582q0 -66 -67 -65h-37q-23 0 -33 2t-26 10q-8 4 -17 20q-6 12 -6 33v463q-2 0 -11 -4t-16 -6q-18 -6 -24 -6q-20 0 -31 8q-12 8 -18 22.5t-10 30.5 q-3 11 -3 31zM383 12q0 16 6 29l748 1376q8 14 22.5 24.5t32.5 10.5q12 0 25 -6l28 -14l25 -17q8 -6 24 -14q10 -4 17 -19q4 -8 4 -24q0 -10 -2 -15q-2 -2 -4 -7t-2 -7l-746 -1376q-8 -16 -24 -27q-14 -8 -33 -8h-12q-2 0 -11 4l-80 47q-10 6 -14 19q-4 16 -4 24zM1114 98 q0 16 6 30.5t17 29.5q6 8 22 24q12 12 25 23q25 25 41 39l55 51l55 55q43 47 51 60q25 35 37 57q14 27 15 51q0 31 -11 39q-14 10 -43 10q-8 0 -25.5 -1t-27.5 -1q-27 0 -51 -6q-6 -2 -14.5 -4t-14.5 -2q-20 -4 -30 -4q-20 0 -35 10q-14 12 -21 25q-8 18 -10 34q-2 12 -2 35 q0 29 21 41q23 12 45 19q83 12 165 12q45 0 93 -10q45 -10 77 -31q29 -18 54 -59q20 -35 20 -90q0 -63 -24 -115q-31 -63 -60 -101q-39 -49 -82 -86l-88 -77q61 4 94 4h93q18 0 38 -8q16 -6 23 -19q8 -16 8 -31q0 -6 1 -18t1 -21q0 -35 -20.5 -49t-50.5 -14h-379 q-18 0 -39 8q-12 4 -20.5 20.5t-8.5 30.5v39z" />
<glyph unicode="&#xbe;" horiz-adv-x="1736" d="M94 745q0 8 4 33q2 18 15 37q10 16 22 27q16 12 33 12h10q4 0 12 -4l82 -23q45 -10 86 -10q14 0 35 4q16 4 23 13q8 12 10 24q2 10 2 35q0 20 -2 27q-4 12 -8 16t-17 8q-6 2 -26.5 6t-61.5 4h-61q-39 0 -51 4q-14 4 -25 19q-8 10 -8 31q0 6 -1 21t-1 26q0 27 14.5 39 t34.5 14q14 2 43 2h39h49q16 0 33 8q10 4 16 23q6 14 6 47q0 18 -4 31q-4 10 -12 16q-6 4 -23 4q-4 0 -15 1t-17 1q-33 0 -49 -2l-48 -6q-4 -2 -10 -3t-10 -1q-8 -2 -20 -2q-16 0 -31 10q-8 6 -17 23q-4 8 -8 28q-2 6 -2 16.5t-2 14.5t-2 8v8q0 25 25 37q33 16 57 19 q45 4 63 4h50q59 0 100 -9q45 -8 82 -30.5t57 -59.5q20 -39 21 -100q0 -37 -11 -74q-10 -35 -34 -63q43 -29 59 -72q14 -41 14 -92q0 -63 -18 -108.5t-53 -73.5q-39 -33 -82 -43q-49 -12 -109 -13q-4 0 -16 1t-21 1q-16 0 -53 5q-18 2 -59 10q-20 4 -53 16q-25 8 -41 23 q-15 12 -15 32zM424 12q0 16 6 29l748 1376q8 14 22 24.5t33 10.5q14 0 27 -6q23 -12 26 -14l25 -17q8 -6 24 -14q10 -4 17 -19q4 -8 4 -24q0 -10 -2 -15q-2 -2 -4 -7t-2 -7l-746 -1376q-8 -16 -24 -27q-14 -8 -33 -8h-13q-2 0 -10 4l-80 47q-10 6 -14 19q-4 16 -4 24z M1049 274q0 12 6 25q8 16 12 20l291 363q16 16 24 23q10 8 31 8h60q29 0 47 -18.5t18 -47.5v-332q27 0 37 -2q14 -2 29 -10q10 -6 18 -20q6 -12 6 -37q0 -28 -6 -43q-6 -16 -14.5 -24.5t-28.5 -12.5q-12 -2 -41 -2v-98q0 -66 -65 -66h-23q-37 0 -57 12q-23 12 -23 54v98 h-246q-16 0 -32 8q-14 6 -21 21q-8 16 -10 26l-8 31q-2 4 -2 12q0 2 -1 6t-1 6zM1239 307q20 2 65.5 2t65.5 2v158z" />
<glyph unicode="&#xbf;" horiz-adv-x="1028" d="M111 289q0 74 28 137q27 57 82 117q18 23 62 59l71 66q20 18 64 61q41 45 51 68q14 33 14 82q0 33 14.5 45t59.5 12h74q49 0 63 -18q14 -16 15 -66v-51q0 -71 -43 -129q-43 -57 -121 -127q-88 -78 -123 -123q-43 -55 -43 -121q0 -65 31 -92q33 -29 108 -29q63 0 113 8 l143 25q29 6 45 6q43 0 49 -35l21 -125q0 -2 1 -4t1 -4v-6q0 -49 -72 -61q-164 -25 -311 -25q-135 0 -219 33q-86 35 -133 108q-45 72 -45 189zM391 1221q0 23 15 34l141 142q14 14 31 14q18 0 32 -14l142 -142q14 -14 14 -32q0 -20 -14 -35l-142 -141q-12 -14 -30 -15 q-20 0 -33 15l-141 141q-15 13 -15 33z" />
<glyph unicode="&#xc0;" horiz-adv-x="1284" d="M37 49q0 18 16 64l420 1171q23 53 43 72q23 20 78 20h84q57 0 80 -20q23 -18 41 -70l442 -1194q8 -18 8 -31q0 -61 -73 -61h-113q-43 0 -63.5 18.5t-32.5 53.5l-90 256q-59 -2 -244 -2h-76h-84q-18 0 -44 1t-32 1l-82 -242q-15 -49 -36 -68q-20 -18 -68 -18h-94 q-47 0 -63.5 12t-16.5 37zM471 539q12 0 35.5 1t34.5 1h92h92q10 0 34.5 -1t39.5 -1l-164 483zM383 1829q0 31 37 39q33 8 106 8h17h6q72 0 88 -12q20 -12 94 -110q80 -106 111 -158q16 -29 16 -35q0 -41 -80 -41h-84q-25 0 -51 10q-37 18 -53 37q-47 53 -88 107l-4 5 q-4 5 -12.5 13t-16.5 19l-47 53q-16 20 -27 35q-12 18 -12 30z" />
<glyph unicode="&#xc1;" horiz-adv-x="1284" d="M37 49q0 18 16 64l420 1171q23 53 43 72q23 20 78 20h84q57 0 80 -20q23 -18 41 -70l442 -1194q8 -18 8 -31q0 -61 -73 -61h-113q-43 0 -63.5 18.5t-32.5 53.5l-90 256q-59 -2 -244 -2h-76h-84q-18 0 -44 1t-32 1l-82 -242q-15 -49 -36 -68q-20 -18 -68 -18h-94 q-47 0 -63.5 12t-16.5 37zM471 539q12 0 35.5 1t34.5 1h92h92q10 0 34.5 -1t39.5 -1l-164 483zM453 1558q0 6 16 35q43 72 113 160q76 98 92 108q15 12 92 12q104 0 133 -12t29 -35q0 -10 -22 -43l-101 -118q-102 -121 -133 -136q-31 -12 -57 -12h-68q-49 0 -71.5 6 t-22.5 35z" />
<glyph unicode="&#xc2;" horiz-adv-x="1284" d="M37 49q0 18 16 64l420 1171q23 53 43 72q23 20 78 20h84q57 0 80 -20q23 -18 41 -70l442 -1194q8 -18 8 -31q0 -61 -73 -61h-113q-43 0 -63.5 18.5t-32.5 53.5l-90 256q-59 -2 -244 -2h-76h-84q-18 0 -44 1t-32 1l-82 -242q-15 -49 -36 -68q-20 -18 -68 -18h-94 q-47 0 -63.5 12t-16.5 37zM471 539q12 0 35.5 1t34.5 1h92h92q10 0 34.5 -1t39.5 -1l-164 483zM319 1567.5q0 16.5 14 36.5l146 201q41 55 59 69q12 12 29 15q12 2 74 2q86 0 102 -17q18 -14 59 -69l146 -201q14 -20 14 -36.5t-33 -31.5q-31 -14 -104 -14q-31 0 -47 6 q-8 2 -21 15q-16 16 -24 30l-29 43l-63 86q-39 -49 -64 -86l-45 -65q-14 -18 -29 -23q-16 -6 -47 -6q-74 0 -104 14q-33 15 -33 31.5z" />
<glyph unicode="&#xc3;" horiz-adv-x="1284" d="M37 49q0 18 16 64l420 1171q23 53 43 72q23 20 78 20h84q57 0 80 -20q23 -18 41 -70l442 -1194q8 -18 8 -31q0 -61 -73 -61h-113q-43 0 -63.5 18.5t-32.5 53.5l-90 256q-59 -2 -244 -2h-76h-84q-18 0 -44 1t-32 1l-82 -242q-15 -49 -36 -68q-20 -18 -68 -18h-94 q-47 0 -63.5 12t-16.5 37zM471 539q12 0 35.5 1t34.5 1h92h92q10 0 34.5 -1t39.5 -1l-164 483zM293 1579q0 33 29 84q80 150 198 150q37 0 68 -8q63 -16 74 -21l69 -24q27 -8 47 -9q23 0 45 25q16 18 33 31q10 8 33 8h61q57 0 58 -47q0 -23 -21 -64q-72 -152 -202 -151 q-25 0 -62 8q-12 2 -72 22q-55 18 -71 25q-23 8 -47 8q-16 0 -25 -4q-2 0 -5 -4l-7 -9t-8 -9q-20 -20 -35 -31q-20 -14 -58 -15h-67q-35 0 -35 35z" />
<glyph unicode="&#xc4;" horiz-adv-x="1284" d="M37 49q0 18 16 64l420 1171q23 53 43 72q23 20 78 20h84q57 0 80 -20q23 -18 41 -70l442 -1194q8 -18 8 -31q0 -61 -73 -61h-113q-43 0 -63.5 18.5t-32.5 53.5l-90 256q-59 -2 -244 -2h-76h-84q-18 0 -44 1t-32 1l-82 -242q-15 -49 -36 -68q-20 -18 -68 -18h-94 q-47 0 -63.5 12t-16.5 37zM471 539q12 0 35.5 1t34.5 1h92h92q10 0 34.5 -1t39.5 -1l-164 483zM328 1610v137q0 29 16 45q18 18 43 19h134q25 0 43 -19q16 -16 16 -45v-137q0 -27 -16 -43q-18 -18 -43 -18h-134q-23 0 -41 18t-18 43zM713 1610v137q0 29 16 45q18 18 43 19 h134q25 0 43 -19q16 -16 16 -45v-137q0 -25 -18.5 -43t-40.5 -18h-134q-23 0 -41 18t-18 43z" />
<glyph unicode="&#xc5;" horiz-adv-x="1284" d="M37 49q0 18 16 64l420 1171q23 53 43 72q23 20 78 20h84q57 0 80 -20q23 -18 41 -70l442 -1194q8 -18 8 -31q0 -61 -73 -61h-113q-43 0 -63.5 18.5t-32.5 53.5l-90 256q-59 -2 -244 -2h-76h-84q-18 0 -44 1t-32 1l-82 -242q-15 -49 -36 -68q-20 -18 -68 -18h-94 q-47 0 -63.5 12t-16.5 37zM471 539q12 0 35.5 1t34.5 1h92h92q10 0 34.5 -1t39.5 -1l-164 483zM721 1757.5q0 30.5 -22 57.5q-23 25 -58 24q-34 0 -55 -24q-23 -27 -23 -58q0 -29 23 -55q20 -25 55 -25q31 0 55.5 25t24.5 55.5zM824 1757q0 -76 -54 -133q-52 -55 -129 -55 q-72 0 -127 55t-55 133q0 76 53 133q53 55 129 56q77 0 129 -56q54 -57 54 -133z" />
<glyph unicode="&#xc6;" horiz-adv-x="1863" d="M37 68q0 18 22 67l494 1012q43 86 76 137q27 41 67 64q39 20 99 20h862q86 0 86 -84v-55q0 -47 -14 -70q-16 -27 -72 -26q-276 0 -461 6v-320q168 6 414 6q55 0 71.5 -26.5t16.5 -69.5v-29q0 -41 -17 -69q-14 -27 -71 -27q-211 0 -414 8v-383q215 6 461 7q55 0 72 -25 q14 -23 14 -72v-55q0 -84 -86 -84h-633q-49 0 -76 20q-25 18 -24 70v365h-426l-179 -373q-20 -45 -42.5 -63.5t-57.5 -18.5h-94q-37 0 -64 20q-24 19 -24 48zM602 668h322v471h-56q-28 0 -37 -6q-6 -4 -20 -33z" />
<glyph unicode="&#xc7;" horiz-adv-x="1155" d="M129 668q0 231 35 364q37 139 108 217q71 77 179 105q111 29 268 28q70 0 233 -10q59 -2 84 -20q23 -16 23 -52v-67q0 -57 -14.5 -77.5t-63.5 -20.5q-16 0 -84 6q-45 4 -137 4q-66 0 -127 -6q-59 -6 -96 -23q-55 -23 -84 -84q-27 -55 -33 -139q-8 -106 -8 -227 q0 -139 12 -226q12 -92 51 -143q43 -59 127 -74q43 -8 158 -8q66 0 110 4q68 6 111 6q49 0 63.5 -20.5t14.5 -77.5v-70q0 -33 -23 -49q-25 -18 -84 -20q-31 -2 -84 -6q-16 0 -44.5 -1t-43.5 -4q-4 -16 -12 -28l-133 -178q-25 -31 -43 -43q-14 -10 -53 -11h-84 q-43 0 -55.5 12.5t-12.5 34.5q0 27 27 56l155 166q-84 12 -125 26q-123 37 -192.5 125t-95.5 219q-27 128 -27 312z" />
<glyph unicode="&#xc8;" horiz-adv-x="1101" d="M160 90v1194q0 51 28.5 67.5t71.5 16.5h633q46 0 68 -18q20 -18 20 -66v-55q0 -41 -16 -70q-14 -27 -72 -26q-274 0 -459 6v-320q102 4 158 4q31 0 69.5 1t45.5 1h141q55 0 71.5 -26.5t16.5 -69.5v-29q0 -41 -16 -69q-14 -27 -72 -27q-123 0 -191 2q-35 2 -109.5 3 t-113.5 1v-381q215 6 459 7q57 0 72 -27q16 -29 16 -70v-55q0 -84 -88 -84h-633q-49 0 -76 20q-24 19 -24 70zM266 1829q0 31 37 39q33 8 106 8h17h6q72 0 88 -12q20 -12 94 -110q80 -106 111 -158q16 -29 16 -35q0 -41 -80 -41h-84q-25 0 -51 10q-37 18 -53 37 q-47 53 -88 107l-4 5q-4 5 -12.5 13t-16.5 19l-47 53q-16 20 -27 35q-12 18 -12 30z" />
<glyph unicode="&#xc9;" horiz-adv-x="1101" d="M160 90v1194q0 51 28.5 67.5t71.5 16.5h633q46 0 68 -18q20 -18 20 -66v-55q0 -41 -16 -70q-14 -27 -72 -26q-274 0 -459 6v-320q102 4 158 4q31 0 69.5 1t45.5 1h141q55 0 71.5 -26.5t16.5 -69.5v-29q0 -41 -16 -69q-14 -27 -72 -27q-123 0 -191 2q-35 2 -109.5 3 t-113.5 1v-381q215 6 459 7q57 0 72 -27q16 -29 16 -70v-55q0 -84 -88 -84h-633q-49 0 -76 20q-24 19 -24 70zM389 1558q0 6 16 35q43 72 113 160q76 98 92 108q15 12 92 12q104 0 133 -12t29 -35q0 -10 -22 -43l-101 -118q-102 -121 -133 -136q-31 -12 -57 -12h-68 q-49 0 -71.5 6t-22.5 35z" />
<glyph unicode="&#xca;" horiz-adv-x="1101" d="M160 90v1194q0 51 28.5 67.5t71.5 16.5h633q46 0 68 -18q20 -18 20 -66v-55q0 -41 -16 -70q-14 -27 -72 -26q-274 0 -459 6v-320q102 4 158 4q31 0 69.5 1t45.5 1h141q55 0 71.5 -26.5t16.5 -69.5v-29q0 -41 -16 -69q-14 -27 -72 -27q-123 0 -191 2q-35 2 -109.5 3 t-113.5 1v-381q215 6 459 7q57 0 72 -27q16 -29 16 -70v-55q0 -84 -88 -84h-633q-49 0 -76 20q-24 19 -24 70zM256 1567.5q0 16.5 14 36.5l146 201q41 55 59 69q12 12 29 15q12 2 74 2q86 0 102 -17q18 -14 59 -69l146 -201q14 -20 14 -36.5t-33 -31.5q-31 -14 -104 -14 q-31 0 -47 6q-8 2 -21 15q-16 16 -24 30l-29 43l-63 86q-39 -49 -64 -86l-45 -65q-14 -18 -29 -23q-16 -6 -47 -6q-74 0 -104 14q-33 15 -33 31.5z" />
<glyph unicode="&#xcb;" horiz-adv-x="1101" d="M160 90v1194q0 51 28.5 67.5t71.5 16.5h633q46 0 68 -18q20 -18 20 -66v-55q0 -41 -16 -70q-14 -27 -72 -26q-274 0 -459 6v-320q102 4 158 4q31 0 69.5 1t45.5 1h141q55 0 71.5 -26.5t16.5 -69.5v-29q0 -41 -16 -69q-14 -27 -72 -27q-123 0 -191 2q-35 2 -109.5 3 t-113.5 1v-381q215 6 459 7q57 0 72 -27q16 -29 16 -70v-55q0 -84 -88 -84h-633q-49 0 -76 20q-24 19 -24 70zM256 1610v137q0 29 16 45q18 18 43 19h134q25 0 43 -19q16 -16 16 -45v-137q0 -27 -16 -43q-18 -18 -43 -18h-134q-23 0 -41 18t-18 43zM641 1610v137q0 29 16 45 q18 18 43 19h134q25 0 43 -19q16 -16 16 -45v-137q0 -25 -18.5 -43t-40.5 -18h-134q-23 0 -41 18t-18 43z" />
<glyph unicode="&#xcc;" horiz-adv-x="610" d="M170 90v1194q0 53 27 68q29 16 71 16h88q88 0 88 -84v-1194q0 -90 -88 -90h-88q-51 0 -75 20q-23 19 -23 70zM70 1829q0 31 37 39q33 8 106 8h17h6q72 0 88 -12q20 -12 94 -110q80 -106 111 -158q16 -29 16 -35q0 -41 -80 -41h-84q-25 0 -51 10q-37 18 -53 37 q-47 53 -88 107l-4 5q-4 5 -12.5 13t-16.5 19l-47 53q-16 20 -27 35q-12 18 -12 30z" />
<glyph unicode="&#xcd;" horiz-adv-x="610" d="M170 90v1194q0 53 27 68q29 16 71 16h88q88 0 88 -84v-1194q0 -90 -88 -90h-88q-51 0 -75 20q-23 19 -23 70zM70 1558q0 6 16 35q43 72 113 160q76 98 92 108q15 12 92 12q104 0 133 -12t29 -35q0 -10 -22 -43l-101 -118q-102 -121 -133 -136q-31 -12 -57 -12h-68 q-49 0 -71.5 6t-22.5 35z" />
<glyph unicode="&#xce;" horiz-adv-x="610" d="M170 90v1194q0 53 27 68q29 16 71 16h88q88 0 88 -84v-1194q0 -90 -88 -90h-88q-51 0 -75 20q-23 19 -23 70zM-14 1567.5q0 16.5 14 36.5l146 201q41 55 59 69q12 12 29 15q12 2 74 2q86 0 102 -17q18 -14 59 -69l146 -201q14 -20 14 -36.5t-33 -31.5q-31 -14 -104 -14 q-31 0 -47 6q-8 2 -21 15q-16 16 -24 30l-29 43l-63 86q-39 -49 -64 -86l-45 -65q-14 -18 -29 -23q-16 -6 -47 -6q-74 0 -104 14q-33 15 -33 31.5z" />
<glyph unicode="&#xcf;" horiz-adv-x="610" d="M170 90v1194q0 53 27 68q29 16 71 16h88q88 0 88 -84v-1194q0 -90 -88 -90h-88q-51 0 -75 20q-23 19 -23 70zM-12 1610v137q0 29 16 45q18 18 43 19h134q25 0 43 -19q16 -16 16 -45v-137q0 -27 -16 -43q-18 -18 -43 -18h-134q-23 0 -41 18t-18 43zM373 1610v137 q0 29 16 45q18 18 43 19h134q25 0 43 -19q16 -16 16 -45v-137q0 -25 -18.5 -43t-40.5 -18h-134q-23 0 -41 18t-18 43z" />
<glyph unicode="&#xd0;" horiz-adv-x="1380" d="M80 696v56q0 41 26 59q31 20 64 20h41v453q0 53 27 68q29 16 71 16h359q221 0 341.5 -51t186.5 -203q63 -147 64 -444q0 -129 -13 -230q-12 -101 -49 -184q-39 -86 -104 -143q-74 -63 -181 -88q-61 -14 -131 -21q-43 -4 -114 -4h-359q-51 0 -76 20q-23 18 -22 70v520h-41 q-49 0 -69.5 20.5t-20.5 65.5zM485 244q10 -2 30 -3t30 -1q23 -2 82 -2q76 0 147 10q86 15 129 61q43 47 60 131q14 78 14 226v18q0 127 -6 201q-6 72 -35 133q-29 59 -86 84q-37 16 -94 22q-61 6 -129 6h-66q-4 0 -16.5 -1t-20.5 -1q-10 0 -39 -4v-293h179q49 0 69 -18 q23 -18 23 -61v-37q0 -59 -16.5 -82t-75.5 -23h-179v-366z" />
<glyph unicode="&#x110;" horiz-adv-x="1380" d="M80 696v56q0 41 26 59q31 20 64 20h41v453q0 53 27 68q29 16 71 16h359q221 0 341.5 -51t186.5 -203q63 -147 64 -444q0 -129 -13 -230q-12 -101 -49 -184q-39 -86 -104 -143q-74 -63 -181 -88q-61 -14 -131 -21q-43 -4 -114 -4h-359q-51 0 -76 20q-23 18 -22 70v520h-41 q-49 0 -69.5 20.5t-20.5 65.5zM485 244q10 -2 30 -3t30 -1q23 -2 82 -2q76 0 147 10q86 15 129 61q43 47 60 131q14 78 14 226v18q0 127 -6 201q-6 72 -35 133q-29 59 -86 84q-37 16 -94 22q-61 6 -129 6h-66q-4 0 -16.5 -1t-20.5 -1q-10 0 -39 -4v-293h179q49 0 69 -18 q23 -18 23 -61v-37q0 -59 -16.5 -82t-75.5 -23h-179v-366z" />
<glyph unicode="&#xd1;" horiz-adv-x="1415" d="M154 90v1194q0 53 26 68q29 16 72 16h55q45 0 64 -8q25 -10 41 -35q68 -88 110 -151l137 -199l166 -244l168 -244v797q0 53 27 68q29 16 74 16h84q86 0 86 -84v-1194q0 -90 -86 -90h-64q-37 0 -70 8q-23 6 -45 35l-139 195l-141 204l-154 226l-141 206v-784 q0 -90 -90 -90h-82q-51 0 -76 20q-22 19 -22 70zM319 1573q0 33 29 84q80 150 198 150q37 0 68 -8q63 -16 74 -21l69 -24q27 -8 47 -9q23 0 45 25q16 18 33 31q10 8 33 8h61q57 0 58 -47q0 -23 -21 -64q-72 -152 -202 -151q-25 0 -62 8q-12 2 -72 22q-55 18 -71 25 q-23 8 -47 8q-16 0 -25 -4q-2 0 -5 -4l-7 -9t-8 -9q-20 -20 -35 -31q-20 -14 -58 -15h-67q-35 0 -35 35z" />
<glyph unicode="&#xd2;" horiz-adv-x="1421" d="M129 682q0 172 35 315q35 139 117 238q45 53 114 96q63 39 143 57.5t175 18.5q98 0 174 -18q77 -18 141 -56q61 -35 115 -98q154 -181 153 -553q0 -372 -153 -553q-76 -88 -178 -129q-108 -43 -252 -43q-291 0 -432 172q-55 63 -90 153.5t-48 184.5q-14 115 -14 215z M414 682q0 -256 45 -352q61 -133 253.5 -133t254.5 133q45 96 45 352q0 121 -8 203q-10 94 -37 151q-61 131 -254 131t-254 -131q-25 -55 -35 -159q-10 -109 -10 -195zM451 1829q0 31 37 39q33 8 106 8h17h6q72 0 88 -12q20 -12 94 -110q80 -106 111 -158q16 -29 16 -35 q0 -41 -80 -41h-84q-25 0 -51 10q-37 18 -53 37q-47 53 -88 107l-4 5q-4 5 -12.5 13t-16.5 19l-47 53q-16 20 -27 35q-12 18 -12 30z" />
<glyph unicode="&#xd3;" horiz-adv-x="1421" d="M129 682q0 172 35 315q35 139 117 238q45 53 114 96q63 39 143 57.5t175 18.5q98 0 174 -18q77 -18 141 -56q61 -35 115 -98q154 -181 153 -553q0 -372 -153 -553q-76 -88 -178 -129q-108 -43 -252 -43q-291 0 -432 172q-55 63 -90 153.5t-48 184.5q-14 115 -14 215z M414 682q0 -256 45 -352q61 -133 253.5 -133t254.5 133q45 96 45 352q0 121 -8 203q-10 94 -37 151q-61 131 -254 131t-254 -131q-25 -55 -35 -159q-10 -109 -10 -195zM528 1558q0 6 16 35q43 72 113 160q76 98 92 108q15 12 92 12q104 0 133 -12t29 -35q0 -10 -22 -43 l-101 -118q-102 -121 -133 -136q-31 -12 -57 -12h-68q-49 0 -71.5 6t-22.5 35z" />
<glyph unicode="&#xd4;" horiz-adv-x="1421" d="M129 682q0 172 35 315q35 139 117 238q45 53 114 96q63 39 143 57.5t175 18.5q98 0 174 -18q77 -18 141 -56q61 -35 115 -98q154 -181 153 -553q0 -372 -153 -553q-76 -88 -178 -129q-108 -43 -252 -43q-291 0 -432 172q-55 63 -90 153.5t-48 184.5q-14 115 -14 215z M414 682q0 -256 45 -352q61 -133 253.5 -133t254.5 133q45 96 45 352q0 121 -8 203q-10 94 -37 151q-61 131 -254 131t-254 -131q-25 -55 -35 -159q-10 -109 -10 -195zM385 1567.5q0 16.5 14 36.5l146 201q41 55 59 69q12 12 29 15q12 2 74 2q86 0 102 -17q18 -14 59 -69 l146 -201q14 -20 14 -36.5t-33 -31.5q-31 -14 -104 -14q-31 0 -47 6q-8 2 -21 15q-16 16 -24 30l-29 43l-63 86q-39 -49 -64 -86l-45 -65q-14 -18 -29 -23q-16 -6 -47 -6q-74 0 -104 14q-33 15 -33 31.5z" />
<glyph unicode="&#xd5;" horiz-adv-x="1421" d="M129 682q0 172 35 315q35 139 117 238q45 53 114 96q63 39 143 57.5t175 18.5q98 0 174 -18q77 -18 141 -56q61 -35 115 -98q154 -181 153 -553q0 -372 -153 -553q-76 -88 -178 -129q-108 -43 -252 -43q-291 0 -432 172q-55 63 -90 153.5t-48 184.5q-14 115 -14 215z M414 682q0 -256 45 -352q61 -133 253.5 -133t254.5 133q45 96 45 352q0 121 -8 203q-10 94 -37 151q-61 131 -254 131t-254 -131q-25 -55 -35 -159q-10 -109 -10 -195zM369 1573q0 33 29 84q80 150 198 150q37 0 68 -8q63 -16 74 -21l69 -24q27 -8 47 -9q23 0 45 25 q16 18 33 31q10 8 33 8h61q57 0 58 -47q0 -23 -21 -64q-72 -152 -202 -151q-25 0 -62 8q-12 2 -72 22q-55 18 -71 25q-23 8 -47 8q-16 0 -25 -4q-2 0 -5 -4l-7 -9t-8 -9q-20 -20 -35 -31q-20 -14 -58 -15h-67q-35 0 -35 35z" />
<glyph unicode="&#xd6;" horiz-adv-x="1421" d="M129 682q0 172 35 315q35 139 117 238q45 53 114 96q63 39 143 57.5t175 18.5q98 0 174 -18q77 -18 141 -56q61 -35 115 -98q154 -181 153 -553q0 -372 -153 -553q-76 -88 -178 -129q-108 -43 -252 -43q-291 0 -432 172q-55 63 -90 153.5t-48 184.5q-14 115 -14 215z M414 682q0 -256 45 -352q61 -133 253.5 -133t254.5 133q45 96 45 352q0 121 -8 203q-10 94 -37 151q-61 131 -254 131t-254 -131q-25 -55 -35 -159q-10 -109 -10 -195zM391 1610v137q0 29 16 45q18 18 43 19h134q25 0 43 -19q16 -16 16 -45v-137q0 -27 -16 -43 q-18 -18 -43 -18h-134q-23 0 -41 18t-18 43zM776 1610v137q0 29 16 45q18 18 43 19h134q25 0 43 -19q16 -16 16 -45v-137q0 -25 -18.5 -43t-40.5 -18h-134q-23 0 -41 18t-18 43z" />
<glyph unicode="&#xd7;" horiz-adv-x="1048" d="M92 215l281 274l-281 277l150 149l282 -276l283 276l149 -149l-280 -277l280 -274l-149 -149l-283 276l-282 -276z" />
<glyph unicode="&#xd8;" horiz-adv-x="1497" d="M98 31q0 18 25 51l133 158q-31 65 -49.5 135t-24.5 147q-6 76 -6 160q0 172 35 315q35 139 117 238q47 55 112 96q61 39 146 58q80 18 172 18q238 0 381 -121l98 119q31 37 53 37q18 0 41 -21l51 -43q20 -18 21 -45q0 -20 -35 -67l-108 -131q45 -82 63 -201 q20 -127 20 -252q0 -90 -10 -197q-8 -90 -41 -180q-33 -94 -90 -162q-78 -100 -190 -143q-111 -43 -254 -43q-246 0 -385 127l-105 -125q-35 -37 -53 -37q-16 0 -35 17l-59 51q-23 18 -23 41zM459 682q0 -119 10 -190l504 602q-68 74 -215 73q-190 0 -252 -131 q-47 -106 -47 -354zM539 279q70 -82 219 -82q195 0 256 133q45 96 45 352q0 125 -12 207z" />
<glyph unicode="&#xd9;" horiz-adv-x="1392" d="M141 850v434q0 53 27 68q29 16 72 16h86q90 0 90 -84v-604q0 -152 10 -238q10 -82 33 -133q20 -39 45 -59q27 -20 71 -31q47 -10 121 -10q111 0 162 24q53 25 78 76q23 47 33 123q10 82 10 248v604q0 55 26.5 69.5t75.5 14.5h88q51 0 67.5 -22.5t16.5 -61.5v-434 q0 -176 -4 -311q-2 -86 -20 -191q-31 -178 -129 -270q-121 -109 -404 -109q-281 0 -401 109q-104 98 -131 270q-14 92 -19 193q-4 131 -4 309zM387 1829q0 31 37 39q33 8 106 8h17h6q72 0 88 -12q20 -12 94 -110q80 -106 111 -158q16 -29 16 -35q0 -41 -80 -41h-84 q-25 0 -51 10q-37 18 -53 37q-47 53 -88 107l-4 5q-4 5 -12.5 13t-16.5 19l-47 53q-16 20 -27 35q-12 18 -12 30z" />
<glyph unicode="&#xda;" horiz-adv-x="1392" d="M141 850v434q0 53 27 68q29 16 72 16h86q90 0 90 -84v-604q0 -152 10 -238q10 -82 33 -133q20 -39 45 -59q27 -20 71 -31q47 -10 121 -10q111 0 162 24q53 25 78 76q23 47 33 123q10 82 10 248v604q0 55 26.5 69.5t75.5 14.5h88q51 0 67.5 -22.5t16.5 -61.5v-434 q0 -176 -4 -311q-2 -86 -20 -191q-31 -178 -129 -270q-121 -109 -404 -109q-281 0 -401 109q-104 98 -131 270q-14 92 -19 193q-4 131 -4 309zM541 1558q0 6 16 35q43 72 113 160q76 98 92 108q15 12 92 12q104 0 133 -12t29 -35q0 -10 -22 -43l-101 -118 q-102 -121 -133 -136q-31 -12 -57 -12h-68q-49 0 -71.5 6t-22.5 35z" />
<glyph unicode="&#xdb;" horiz-adv-x="1392" d="M141 850v434q0 53 27 68q29 16 72 16h86q90 0 90 -84v-604q0 -152 10 -238q10 -82 33 -133q20 -39 45 -59q27 -20 71 -31q47 -10 121 -10q111 0 162 24q53 25 78 76q23 47 33 123q10 82 10 248v604q0 55 26.5 69.5t75.5 14.5h88q51 0 67.5 -22.5t16.5 -61.5v-434 q0 -176 -4 -311q-2 -86 -20 -191q-31 -178 -129 -270q-121 -109 -404 -109q-281 0 -401 109q-104 98 -131 270q-14 92 -19 193q-4 131 -4 309zM379 1567.5q0 16.5 14 36.5l146 201q41 55 59 69q12 12 29 15q12 2 74 2q86 0 102 -17q18 -14 59 -69l146 -201q14 -20 14 -36.5 t-33 -31.5q-31 -14 -104 -14q-31 0 -47 6q-8 2 -21 15q-16 16 -24 30l-29 43l-63 86q-39 -49 -64 -86l-45 -65q-14 -18 -29 -23q-16 -6 -47 -6q-74 0 -104 14q-33 15 -33 31.5z" />
<glyph unicode="&#xdc;" horiz-adv-x="1392" d="M141 850v434q0 53 27 68q29 16 72 16h86q90 0 90 -84v-604q0 -152 10 -238q10 -82 33 -133q20 -39 45 -59q27 -20 71 -31q47 -10 121 -10q111 0 162 24q53 25 78 76q23 47 33 123q10 82 10 248v604q0 55 26.5 69.5t75.5 14.5h88q51 0 67.5 -22.5t16.5 -61.5v-434 q0 -176 -4 -311q-2 -86 -20 -191q-31 -178 -129 -270q-121 -109 -404 -109q-281 0 -401 109q-104 98 -131 270q-14 92 -19 193q-4 131 -4 309zM379 1610v137q0 29 16 45q18 18 43 19h134q25 0 43 -19q16 -16 16 -45v-137q0 -27 -16 -43q-18 -18 -43 -18h-134q-23 0 -41 18 t-18 43zM764 1610v137q0 29 16 45q18 18 43 19h134q25 0 43 -19q16 -16 16 -45v-137q0 -25 -18.5 -43t-40.5 -18h-134q-23 0 -41 18t-18 43z" />
<glyph unicode="&#xdd;" horiz-adv-x="1259" d="M68 1303q0 34 24 49q27 16 55 16h111q45 0 66 -14q23 -16 36 -45l277 -502l283 504q16 33 38 45q20 12 64 12h90q35 0 57 -18q20 -18 21 -50q0 -33 -29 -79l-389 -691v-440q0 -90 -88 -90h-88q-51 0 -76 20q-23 18 -22 70v424l-410 729q-20 33 -20 60zM500 1558 q0 6 16 35q43 72 113 160q76 98 92 108q15 12 92 12q104 0 133 -12t29 -35q0 -10 -22 -43l-101 -118q-102 -121 -133 -136q-31 -12 -57 -12h-68q-49 0 -71.5 6t-22.5 35z" />
<glyph unicode="&#xde;" horiz-adv-x="1120" d="M137 90v1194q0 53 27 68q29 16 74 16h86q88 0 88 -90v-107h204q163 0 228 -18q63 -18 123 -78q55 -55 80 -151q27 -102 26 -232q0 -315 -178 -401q-51 -25 -121 -35q-68 -10 -170 -10h-192v-156q0 -90 -88 -90h-86q-49 0 -76 20q-25 19 -25 70zM412 479h231q106 0 133 39 q14 20 21 53q4 23 4 136q0 109 -15 153q-16 51 -41 62q-27 14 -163 14h-90q-41 0 -62 -14q-18 -12 -18 -54v-389z" />
<glyph unicode="&#xdf;" horiz-adv-x="1210" d="M143 92v934q0 82 11 133q12 61 36.5 104.5t63.5 75.5q57 47 145 65.5t226 18.5q109 0 190 -10q76 -10 127 -43q55 -37 82 -96q27 -61 27 -172q0 -98 -21 -152q-23 -57 -74 -86q84 -37 111 -125q27 -86 27 -225q0 -156 -39 -272q-39 -115 -135 -191q-96 -74 -254 -74 q-131 0 -150 54l-24 73q-6 18 -7 35q0 33 21 54q23 23 55 22q4 0 57.5 -4t65.5 -4q53 0 82 26q33 29 47 101q16 78 16 205q0 100 -24 143q-25 41 -74 51q-55 10 -158 10q-49 0 -63 25q-16 27 -16 80q0 61 20 84q23 25 76 24q115 0 158 21q45 20 45 96q0 55 -17 84 q-16 31 -53 39q-41 10 -111 10q-109 0 -155 -26q-49 -29 -49 -101v-987q0 -92 -82 -92h-74q-59 0 -84 18.5t-25 73.5z" />
<glyph unicode="&#xe0;" horiz-adv-x="1083" d="M98 279q0 164 88 233.5t246 87.5q23 2 38 5t28 3q27 4 63 6q27 2 82 2h23h26q0 113 -14 148q-18 49 -88 49q-123 0 -295 -43q-4 0 -10 -1t-11 -3q-6 -2 -16 -2h-12q-59 0 -60 65v58q0 72 58 86q37 10 114 20q92 12 123 15q74 4 99 4q213 0 292 -94q46 -52 62 -117 q16 -70 16 -215v-498q0 -46 -18 -68q-18 -20 -64 -20h-114q-31 0 -45.5 16.5t-14.5 57.5q-41 -25 -106 -58q-37 -18 -94 -32q-41 -10 -103 -11q-293 1 -293 306zM344 301q0 -61 18 -98q18 -39 58 -39q51 0 90 10q37 10 90 35q33 16 94 57v166q-94 4 -100 4q-98 0 -156 -10 q-51 -8 -73 -39q-21 -27 -21 -86zM270 1507q0 31 37 39q33 8 106 8h17h6q72 0 88 -12q20 -12 94 -110q80 -106 111 -158q16 -29 16 -35q0 -41 -80 -41h-84q-25 0 -51 10q-37 18 -53 37q-47 53 -88 107l-4 5q-4 5 -12.5 13t-16.5 19l-47 53q-16 20 -27 35q-12 18 -12 30z" />
<glyph unicode="&#xe1;" horiz-adv-x="1083" d="M98 279q0 164 88 233.5t246 87.5q23 2 38 5t28 3q27 4 63 6q27 2 82 2h23h26q0 113 -14 148q-18 49 -88 49q-123 0 -295 -43q-4 0 -10 -1t-11 -3q-6 -2 -16 -2h-12q-59 0 -60 65v58q0 72 58 86q37 10 114 20q92 12 123 15q74 4 99 4q213 0 292 -94q46 -52 62 -117 q16 -70 16 -215v-498q0 -46 -18 -68q-18 -20 -64 -20h-114q-31 0 -45.5 16.5t-14.5 57.5q-41 -25 -106 -58q-37 -18 -94 -32q-41 -10 -103 -11q-293 1 -293 306zM344 301q0 -61 18 -98q18 -39 58 -39q51 0 90 10q37 10 90 35q33 16 94 57v166q-94 4 -100 4q-98 0 -156 -10 q-51 -8 -73 -39q-21 -27 -21 -86zM393 1241q0 6 16 35q43 72 113 160q76 98 92 108q15 12 92 12q104 0 133 -12t29 -35q0 -10 -22 -43l-101 -118q-102 -121 -133 -136q-31 -12 -57 -12h-68q-49 0 -71.5 6t-22.5 35z" />
<glyph unicode="&#xe2;" horiz-adv-x="1083" d="M98 279q0 164 88 233.5t246 87.5q23 2 38 5t28 3q27 4 63 6q27 2 82 2h23h26q0 113 -14 148q-18 49 -88 49q-123 0 -295 -43q-4 0 -10 -1t-11 -3q-6 -2 -16 -2h-12q-59 0 -60 65v58q0 72 58 86q37 10 114 20q92 12 123 15q74 4 99 4q213 0 292 -94q46 -52 62 -117 q16 -70 16 -215v-498q0 -46 -18 -68q-18 -20 -64 -20h-114q-31 0 -45.5 16.5t-14.5 57.5q-41 -25 -106 -58q-37 -18 -94 -32q-41 -10 -103 -11q-293 1 -293 306zM344 301q0 -61 18 -98q18 -39 58 -39q51 0 90 10q37 10 90 35q33 16 94 57v166q-94 4 -100 4q-98 0 -156 -10 q-51 -8 -73 -39q-21 -27 -21 -86zM215 1229.5q0 16.5 14 36.5l146 201q41 55 59 69q12 12 29 15q12 2 74 2q86 0 102 -17q18 -14 59 -69l146 -201q14 -20 14 -36.5t-33 -31.5q-31 -14 -104 -14q-31 0 -47 6q-8 2 -21 15q-16 16 -24 30l-29 43l-63 86q-39 -49 -64 -86 l-45 -65q-14 -18 -29 -23q-16 -6 -47 -6q-74 0 -104 14q-33 15 -33 31.5z" />
<glyph unicode="&#xe3;" horiz-adv-x="1083" d="M98 279q0 164 88 233.5t246 87.5q23 2 38 5t28 3q27 4 63 6q27 2 82 2h23h26q0 113 -14 148q-18 49 -88 49q-123 0 -295 -43q-4 0 -10 -1t-11 -3q-6 -2 -16 -2h-12q-59 0 -60 65v58q0 72 58 86q37 10 114 20q92 12 123 15q74 4 99 4q213 0 292 -94q46 -52 62 -117 q16 -70 16 -215v-498q0 -46 -18 -68q-18 -20 -64 -20h-114q-31 0 -45.5 16.5t-14.5 57.5q-41 -25 -106 -58q-37 -18 -94 -32q-41 -10 -103 -11q-293 1 -293 306zM344 301q0 -61 18 -98q18 -39 58 -39q51 0 90 10q37 10 90 35q33 16 94 57v166q-94 4 -100 4q-98 0 -156 -10 q-51 -8 -73 -39q-21 -27 -21 -86zM205 1216q0 33 29 84q80 150 198 150q37 0 68 -8q63 -16 74 -21l69 -24q27 -8 47 -9q23 0 45 25q16 18 33 31q10 8 33 8h61q57 0 58 -47q0 -23 -21 -64q-72 -152 -202 -151q-25 0 -62 8q-12 2 -72 22q-55 18 -71 25q-23 8 -47 8 q-16 0 -25 -4q-2 0 -5 -4l-7 -9t-8 -9q-20 -20 -35 -31q-20 -14 -58 -15h-67q-35 0 -35 35z" />
<glyph unicode="&#xe4;" horiz-adv-x="1083" d="M98 279q0 164 88 233.5t246 87.5q23 2 38 5t28 3q27 4 63 6q27 2 82 2h23h26q0 113 -14 148q-18 49 -88 49q-123 0 -295 -43q-4 0 -10 -1t-11 -3q-6 -2 -16 -2h-12q-59 0 -60 65v58q0 72 58 86q37 10 114 20q92 12 123 15q74 4 99 4q213 0 292 -94q46 -52 62 -117 q16 -70 16 -215v-498q0 -46 -18 -68q-18 -20 -64 -20h-114q-31 0 -45.5 16.5t-14.5 57.5q-41 -25 -106 -58q-37 -18 -94 -32q-41 -10 -103 -11q-293 1 -293 306zM344 301q0 -61 18 -98q18 -39 58 -39q51 0 90 10q37 10 90 35q33 16 94 57v166q-94 4 -100 4q-98 0 -156 -10 q-51 -8 -73 -39q-21 -27 -21 -86zM252 1259v137q0 29 16 45q18 18 43 19h134q25 0 43 -19q16 -16 16 -45v-137q0 -27 -16 -43q-18 -18 -43 -18h-134q-23 0 -41 18t-18 43zM637 1259v137q0 29 16 45q18 18 43 19h134q25 0 43 -19q16 -16 16 -45v-137q0 -25 -18.5 -43 t-40.5 -18h-134q-23 0 -41 18t-18 43z" />
<glyph unicode="&#xe5;" horiz-adv-x="1083" d="M98 279q0 164 88 233.5t246 87.5q23 2 38 5t28 3q27 4 63 6q27 2 82 2h23h26q0 113 -14 148q-18 49 -88 49q-123 0 -295 -43q-4 0 -10 -1t-11 -3q-6 -2 -16 -2h-12q-59 0 -60 65v58q0 72 58 86q37 10 114 20q92 12 123 15q74 4 99 4q213 0 292 -94q46 -52 62 -117 q16 -70 16 -215v-498q0 -46 -18 -68q-18 -20 -64 -20h-114q-31 0 -45.5 16.5t-14.5 57.5q-41 -25 -106 -58q-37 -18 -94 -32q-41 -10 -103 -11q-293 1 -293 306zM344 301q0 -61 18 -98q18 -39 58 -39q51 0 90 10q37 10 90 35q33 16 94 57v166q-94 4 -100 4q-98 0 -156 -10 q-51 -8 -73 -39q-21 -27 -21 -86zM649 1358.5q0 30.5 -22 57.5q-23 25 -58 24q-34 0 -55 -24q-23 -27 -23 -58q0 -29 23 -55q20 -25 55 -25q31 0 55.5 25t24.5 55.5zM752 1358q0 -76 -54 -133q-52 -55 -129 -55q-72 0 -127 55t-55 133q0 76 53 133q53 55 129 56 q77 0 129 -56q54 -57 54 -133z" />
<glyph unicode="&#xe6;" horiz-adv-x="1656" d="M98 279q0 164 88 233.5t246 87.5q23 2 38 5t28 3q27 4 63 6q27 2 82 2h23h26q0 113 -14 148q-18 49 -88 49q-123 0 -295 -43q-4 0 -10 -1t-11 -3q-6 -2 -16 -2h-12q-59 0 -60 65v58q0 72 58 86q37 10 114 20q92 12 123 15q74 4 99 4q180 0 266 -68q98 68 287 68 q127 0 206 -31q82 -31 125 -96q45 -66 60 -152q16 -92 16 -201q0 -53 -6 -81q-6 -25 -25 -35q-16 -8 -55 -8h-500v-29q0 -76 15 -119q14 -45 53 -63q55 -23 123 -23q106 0 250 33q4 0 20 4q4 2 13.5 4t13.5 2q16 4 24 4q20 0 35 -18q12 -16 21 -45q4 -25 4 -60v-8 q0 -41 -15 -61q-16 -23 -59 -29q-145 -27 -309 -27q-229 0 -332 97q-33 33 -41 47q-78 -57 -180.5 -100.5t-198.5 -43.5q-293 1 -293 306zM344 301q0 -61 18 -98q18 -39 58 -39q70 0 145 29q72 27 148 79q-15 77 -19 160q-94 4 -100 4q-98 0 -156 -10q-51 -8 -73 -39 q-21 -27 -21 -86zM954 588h336v39q0 102 -28.5 141t-128.5 39q-72 0 -111 -19q-37 -16 -53 -61q-14 -41 -15 -121v-18z" />
<glyph unicode="&#xe7;" horiz-adv-x="978" d="M113 492q0 158 22 260q23 100 74 155q53 55 139 80q90 25 232 25q92 0 174 -11q51 -2 75.5 -12t30.5 -20q6 -12 6 -37v-4v-4q0 -92 -22 -127q-23 -29 -51 -29q-10 0 -112.5 12.5t-162.5 12.5q-68 0 -86 -19q-18 -20 -35 -78q-16 -76 -16 -204q0 -98 8 -197q6 -59 31 -82 q23 -20 98 -20q57 0 161.5 12t113.5 12q31 0 49 -20q8 -8 16 -50q8 -39 8 -90q0 -37 -18 -53q-16 -12 -94 -22q-8 0 -24.5 -1t-22.5 -4q-12 -2 -37 -2q0 -20 -11 -30l-129 -174q-27 -35 -41 -43q-23 -12 -53 -13h-80q-66 0 -65 45v4q0 14 8 23q2 12 39 55l72 80l51 55 q-113 12 -172 41q-63 31 -103 88q-39 55 -57 154q-16 85 -16 232z" />
<glyph unicode="&#xe8;" horiz-adv-x="1071" d="M115 485q0 138 18 234q18 94 64 158q51 70 135 102.5t219 32.5q125 0 205 -31t127 -96q45 -63 59 -150q16 -94 16 -203q0 -53 -6 -81q-6 -25 -24 -35q-16 -8 -56 -8h-499v-29q0 -76 14 -119q14 -45 53 -63q55 -23 123 -23q106 0 250 33q2 0 8 2t13 4q10 2 26 6q8 2 25 2 q20 0 35 -18q12 -16 20 -45q4 -25 4 -60v-8q0 -41 -14 -61q-16 -23 -60 -29q-145 -27 -309 -27q-115 0 -199 25q-82 25 -133 72q-63 61 -88 157q-26 106 -26 258zM373 588h336v39q0 104 -29 141q-31 39 -129 39q-72 0 -111 -19q-37 -16 -53 -61q-14 -41 -14 -121v-18z M254 1511q0 31 37 39q33 8 106 8h17h6q72 0 88 -12q20 -12 94 -110q80 -106 111 -158q16 -29 16 -35q0 -41 -80 -41h-84q-25 0 -51 10q-37 18 -53 37q-47 53 -88 107l-4 5q-4 5 -12.5 13t-16.5 19l-47 53q-16 20 -27 35q-12 18 -12 30z" />
<glyph unicode="&#xe9;" horiz-adv-x="1071" d="M115 485q0 138 18 234q18 94 64 158q51 70 135 102.5t219 32.5q125 0 205 -31t127 -96q45 -63 59 -150q16 -94 16 -203q0 -53 -6 -81q-6 -25 -24 -35q-16 -8 -56 -8h-499v-29q0 -76 14 -119q14 -45 53 -63q55 -23 123 -23q106 0 250 33q2 0 8 2t13 4q10 2 26 6q8 2 25 2 q20 0 35 -18q12 -16 20 -45q4 -25 4 -60v-8q0 -41 -14 -61q-16 -23 -60 -29q-145 -27 -309 -27q-115 0 -199 25q-82 25 -133 72q-63 61 -88 157q-26 106 -26 258zM373 588h336v39q0 104 -29 141q-31 39 -129 39q-72 0 -111 -19q-37 -16 -53 -61q-14 -41 -14 -121v-18z M418 1243q0 6 16 35q43 72 113 160q76 98 92 108q15 12 92 12q104 0 133 -12t29 -35q0 -10 -22 -43l-101 -118q-102 -121 -133 -136q-31 -12 -57 -12h-68q-49 0 -71.5 6t-22.5 35z" />
<glyph unicode="&#xea;" horiz-adv-x="1071" d="M115 485q0 138 18 234q18 94 64 158q51 70 135 102.5t219 32.5q125 0 205 -31t127 -96q45 -63 59 -150q16 -94 16 -203q0 -53 -6 -81q-6 -25 -24 -35q-16 -8 -56 -8h-499v-29q0 -76 14 -119q14 -45 53 -63q55 -23 123 -23q106 0 250 33q2 0 8 2t13 4q10 2 26 6q8 2 25 2 q20 0 35 -18q12 -16 20 -45q4 -25 4 -60v-8q0 -41 -14 -61q-16 -23 -60 -29q-145 -27 -309 -27q-115 0 -199 25q-82 25 -133 72q-63 61 -88 157q-26 106 -26 258zM373 588h336v39q0 104 -29 141q-31 39 -129 39q-72 0 -111 -19q-37 -16 -53 -61q-14 -41 -14 -121v-18z M240 1229.5q0 16.5 14 36.5l146 201q41 55 59 69q12 12 29 15q12 2 74 2q86 0 102 -17q18 -14 59 -69l146 -201q14 -20 14 -36.5t-33 -31.5q-31 -14 -104 -14q-31 0 -47 6q-8 2 -21 15q-16 16 -24 30l-29 43l-63 86q-39 -49 -64 -86l-45 -65q-14 -18 -29 -23q-16 -6 -47 -6 q-74 0 -104 14q-33 15 -33 31.5z" />
<glyph unicode="&#xeb;" horiz-adv-x="1071" d="M115 485q0 138 18 234q18 94 64 158q51 70 135 102.5t219 32.5q125 0 205 -31t127 -96q45 -63 59 -150q16 -94 16 -203q0 -53 -6 -81q-6 -25 -24 -35q-16 -8 -56 -8h-499v-29q0 -76 14 -119q14 -45 53 -63q55 -23 123 -23q106 0 250 33q2 0 8 2t13 4q10 2 26 6q8 2 25 2 q20 0 35 -18q12 -16 20 -45q4 -25 4 -60v-8q0 -41 -14 -61q-16 -23 -60 -29q-145 -27 -309 -27q-115 0 -199 25q-82 25 -133 72q-63 61 -88 157q-26 106 -26 258zM373 588h336v39q0 104 -29 141q-31 39 -129 39q-72 0 -111 -19q-37 -16 -53 -61q-14 -41 -14 -121v-18z M250 1259v137q0 29 16 45q18 18 43 19h134q25 0 43 -19q16 -16 16 -45v-137q0 -27 -16 -43q-18 -18 -43 -18h-134q-23 0 -41 18t-18 43zM635 1259v137q0 29 16 45q18 18 43 19h134q25 0 43 -19q16 -16 16 -45v-137q0 -25 -18.5 -43t-40.5 -18h-134q-23 0 -41 18t-18 43z" />
<glyph unicode="&#xec;" horiz-adv-x="563" d="M416 88q0 -88 -82 -88h-78q-57 0 -84 16q-25 16 -25 72v780q0 47 20.5 65.5t70.5 18.5h96q39 0 61 -26q20 -23 21 -58v-780zM16 1511q0 31 37 39q33 8 106 8h17h6q72 0 88 -12q20 -12 94 -110q80 -106 111 -158q16 -29 16 -35q0 -41 -80 -41h-84q-25 0 -51 10 q-37 18 -53 37q-47 53 -88 107l-4 5q-4 5 -12.5 13t-16.5 19l-47 53q-16 20 -27 35q-12 18 -12 30z" />
<glyph unicode="&#xed;" horiz-adv-x="563" d="M416 88q0 -88 -82 -88h-78q-57 0 -84 16q-25 16 -25 72v780q0 47 20.5 65.5t70.5 18.5h96q39 0 61 -26q20 -23 21 -58v-780zM113 1239q0 6 16 35q43 72 113 160q76 98 92 108q15 12 92 12q104 0 133 -12t29 -35q0 -10 -22 -43l-101 -118q-102 -121 -133 -136 q-31 -12 -57 -12h-68q-49 0 -71.5 6t-22.5 35z" />
<glyph unicode="&#xee;" horiz-adv-x="563" d="M416 88q0 -88 -82 -88h-78q-57 0 -84 16q-25 16 -25 72v780q0 47 20.5 65.5t70.5 18.5h96q39 0 61 -26q20 -23 21 -58v-780zM-41 1229.5q0 16.5 14 36.5l146 201q41 55 59 69q12 12 29 15q12 2 74 2q86 0 102 -17q18 -14 59 -69l146 -201q14 -20 14 -36.5t-33 -31.5 q-31 -14 -104 -14q-31 0 -47 6q-8 2 -21 15q-16 16 -24 30l-29 43l-63 86q-39 -49 -64 -86l-45 -65q-14 -18 -29 -23q-16 -6 -47 -6q-74 0 -104 14q-33 15 -33 31.5z" />
<glyph unicode="&#xef;" horiz-adv-x="563" d="M416 88q0 -88 -82 -88h-78q-57 0 -84 16q-25 16 -25 72v780q0 47 20.5 65.5t70.5 18.5h96q39 0 61 -26q20 -23 21 -58v-780zM-35 1259v137q0 29 16 45q18 18 43 19h134q25 0 43 -19q16 -16 16 -45v-137q0 -27 -16 -43q-18 -18 -43 -18h-134q-23 0 -41 18t-18 43z M350 1259v137q0 29 16 45q18 18 43 19h134q25 0 43 -19q16 -16 16 -45v-137q0 -25 -18.5 -43t-40.5 -18h-134q-23 0 -41 18t-18 43z" />
<glyph unicode="&#xf1;" horiz-adv-x="1132" d="M143 90v803q0 49 23 68q25 20 67 20h93q29 0 47 -14q12 -10 22 -49q74 49 133 69q71 25 154 25q121 0 188 -41q72 -43 99 -107q29 -68 28 -137v-637q0 -46 -18 -67q-18 -23 -64 -23h-71q-41 0 -64 6q-20 6 -32.5 26.5t-12.5 57.5v531q0 119 -14 145q-16 31 -64 31 q-70 0 -122 -27q-55 -28 -129 -86v-594q0 -49 -17 -67q-18 -23 -63 -23h-74q-43 0 -64 6q-23 6 -34 27q-11 18 -11 57zM203 1216q0 33 29 84q80 150 198 150q37 0 68 -8q63 -16 74 -21l69 -24q27 -8 47 -9q23 0 45 25q16 18 33 31q10 8 33 8h61q57 0 58 -47q0 -23 -21 -64 q-72 -152 -202 -151q-25 0 -62 8q-12 2 -72 22q-55 18 -71 25q-23 8 -47 8q-16 0 -25 -4q-2 0 -5 -4l-7 -9t-8 -9q-20 -20 -35 -31q-20 -14 -58 -15h-67q-35 0 -35 35z" />
<glyph unicode="&#xf2;" horiz-adv-x="1167" d="M115 492q0 137 30 235q31 100 95 166q111 119 346 119q113 0 202 -29q84 -27 144 -90q68 -70 94 -166q29 -102 29 -235q0 -141 -29 -234q-31 -100 -94 -166q-113 -119 -346 -119q-236 0 -346 119q-63 66 -95 166q-30 99 -30 234zM379 491.5q0 -167.5 39 -237.5 q20 -35 53 -49q31 -14 115 -15q86 0 116 15q33 14 52 49q37 68 37 238t-37 237q-18 37 -52 51q-31 14 -116 15q-84 0 -115 -15q-35 -16 -53 -51q-39 -70 -39 -237.5zM246 1511q0 31 37 39q33 8 106 8h17h6q72 0 88 -12q20 -12 94 -110q80 -106 111 -158q16 -29 16 -35 q0 -41 -80 -41h-84q-25 0 -51 10q-37 18 -53 37q-47 53 -88 107l-4 5q-4 5 -12.5 13t-16.5 19l-47 53q-16 20 -27 35q-12 18 -12 30z" />
<glyph unicode="&#xf3;" horiz-adv-x="1167" d="M115 492q0 137 30 235q31 100 95 166q111 119 346 119q113 0 202 -29q84 -27 144 -90q68 -70 94 -166q29 -102 29 -235q0 -141 -29 -234q-31 -100 -94 -166q-113 -119 -346 -119q-236 0 -346 119q-63 66 -95 166q-30 99 -30 234zM379 491.5q0 -167.5 39 -237.5 q20 -35 53 -49q31 -14 115 -15q86 0 116 15q33 14 52 49q37 68 37 238t-37 237q-18 37 -52 51q-31 14 -116 15q-84 0 -115 -15q-35 -16 -53 -51q-39 -70 -39 -237.5zM379 1239q0 6 16 35q43 72 113 160q76 98 92 108q15 12 92 12q104 0 133 -12t29 -35q0 -10 -22 -43 l-101 -118q-102 -121 -133 -136q-31 -12 -57 -12h-68q-49 0 -71.5 6t-22.5 35z" />
<glyph unicode="&#xf4;" horiz-adv-x="1167" d="M115 492q0 137 30 235q31 100 95 166q111 119 346 119q113 0 202 -29q84 -27 144 -90q68 -70 94 -166q29 -102 29 -235q0 -141 -29 -234q-31 -100 -94 -166q-113 -119 -346 -119q-236 0 -346 119q-63 66 -95 166q-30 99 -30 234zM379 491.5q0 -167.5 39 -237.5 q20 -35 53 -49q31 -14 115 -15q86 0 116 15q33 14 52 49q37 68 37 238t-37 237q-18 37 -52 51q-31 14 -116 15q-84 0 -115 -15q-35 -16 -53 -51q-39 -70 -39 -237.5zM254 1229.5q0 16.5 14 36.5l146 201q41 55 59 69q12 12 29 15q12 2 74 2q86 0 102 -17q18 -14 59 -69 l146 -201q14 -20 14 -36.5t-33 -31.5q-31 -14 -104 -14q-31 0 -47 6q-8 2 -21 15q-16 16 -24 30l-29 43l-63 86q-39 -49 -64 -86l-45 -65q-14 -18 -29 -23q-16 -6 -47 -6q-74 0 -104 14q-33 15 -33 31.5z" />
<glyph unicode="&#xf5;" horiz-adv-x="1167" d="M115 492q0 137 30 235q31 100 95 166q111 119 346 119q113 0 202 -29q84 -27 144 -90q68 -70 94 -166q29 -102 29 -235q0 -141 -29 -234q-31 -100 -94 -166q-113 -119 -346 -119q-236 0 -346 119q-63 66 -95 166q-30 99 -30 234zM379 491.5q0 -167.5 39 -237.5 q20 -35 53 -49q31 -14 115 -15q86 0 116 15q33 14 52 49q37 68 37 238t-37 237q-18 37 -52 51q-31 14 -116 15q-84 0 -115 -15q-35 -16 -53 -51q-39 -70 -39 -237.5zM209 1216q0 33 29 84q80 150 198 150q37 0 68 -8q63 -16 74 -21l69 -24q27 -8 47 -9q23 0 45 25 q16 18 33 31q10 8 33 8h61q57 0 58 -47q0 -23 -21 -64q-72 -152 -202 -151q-25 0 -62 8q-12 2 -72 22q-55 18 -71 25q-23 8 -47 8q-16 0 -25 -4q-2 0 -5 -4l-7 -9t-8 -9q-20 -20 -35 -31q-20 -14 -58 -15h-67q-35 0 -35 35z" />
<glyph unicode="&#xf6;" horiz-adv-x="1167" d="M115 492q0 137 30 235q31 100 95 166q111 119 346 119q113 0 202 -29q84 -27 144 -90q68 -70 94 -166q29 -102 29 -235q0 -141 -29 -234q-31 -100 -94 -166q-113 -119 -346 -119q-236 0 -346 119q-63 66 -95 166q-30 99 -30 234zM379 491.5q0 -167.5 39 -237.5 q20 -35 53 -49q31 -14 115 -15q86 0 116 15q33 14 52 49q37 68 37 238t-37 237q-18 37 -52 51q-31 14 -116 15q-84 0 -115 -15q-35 -16 -53 -51q-39 -70 -39 -237.5zM258 1259v137q0 29 16 45q18 18 43 19h134q25 0 43 -19q16 -16 16 -45v-137q0 -27 -16 -43 q-18 -18 -43 -18h-134q-23 0 -41 18t-18 43zM643 1259v137q0 29 16 45q18 18 43 19h134q25 0 43 -19q16 -16 16 -45v-137q0 -25 -18.5 -43t-40.5 -18h-134q-23 0 -41 18t-18 43z" />
<glyph unicode="&#xf7;" horiz-adv-x="1122" d="M117 401v179h891v-179h-891zM418 143.5q0 53.5 37 94.5q37 39 90 38q55 0 92 -40q37 -39 37 -92.5t-37 -94.5q-37 -39 -92 -39q-53 0 -90 39q-37 41 -37 94.5zM418 838q0 55 37 94t90 39q55 0 92 -39t37 -94.5t-37 -94t-92 -38.5q-53 0 -90 40q-37 41 -37 93z" />
<glyph unicode="&#xf8;" horiz-adv-x="1173" d="M82 -2q0 27 37 65l76 89q-39 59 -58 147q-20 96 -20 193q0 137 30 235q31 100 95 166q111 119 346 119q170 0 276 -64l94 111q28 31 56 31q27 0 51 -25l12 -14q25 -31 25 -52q0 -25 -29 -59l-92 -111q76 -121 76 -337q0 -141 -29 -234q-31 -100 -94 -166 q-113 -119 -346 -119q-168 0 -275 64l-77 -92q-27 -33 -58 -33q-23 0 -45 20l-14 13q-37 30 -37 53zM381 492q0 -68 4 -113l334 395q-35 20 -131 21q-84 0 -115 -15q-35 -16 -53 -51q-39 -69 -39 -237zM459 209q34 -18 129 -19q86 0 117 15q33 14 51 49q37 68 37 238v38 q0 6 -2.5 18.5t-2.5 18.5q0 23 -2 33z" />
<glyph unicode="&#xf9;" horiz-adv-x="1132" d="M135 258v633q0 46 19 67q18 23 63 23h74q61 0 83.5 -16.5t22.5 -73.5v-529q0 -115 15 -141q18 -33 63 -33q65 0 117 25q45 20 135 88v590q0 46 18 67q18 23 64 23h74q61 0 83.5 -16.5t22.5 -73.5v-803q0 -49 -20 -68q-25 -20 -68 -20h-92q-51 0 -70 68q-141 -96 -288 -97 q-119 0 -189 43q-72 45 -98 105q-29 67 -29 139zM254 1507q0 31 37 39q33 8 106 8h17h6q72 0 88 -12q20 -12 94 -110q80 -106 111 -158q16 -29 16 -35q0 -41 -80 -41h-84q-25 0 -51 10q-37 18 -53 37q-47 53 -88 107l-4 5q-4 5 -12.5 13t-16.5 19l-47 53q-16 20 -27 35 q-12 18 -12 30z" />
<glyph unicode="&#xfa;" horiz-adv-x="1132" d="M135 258v633q0 46 19 67q18 23 63 23h74q61 0 83.5 -16.5t22.5 -73.5v-529q0 -115 15 -141q18 -33 63 -33q65 0 117 25q45 20 135 88v590q0 46 18 67q18 23 64 23h74q61 0 83.5 -16.5t22.5 -73.5v-803q0 -49 -20 -68q-25 -20 -68 -20h-92q-51 0 -70 68q-141 -96 -288 -97 q-119 0 -189 43q-72 45 -98 105q-29 67 -29 139zM401 1233q0 6 16 35q43 72 113 160q76 98 92 108q15 12 92 12q104 0 133 -12t29 -35q0 -10 -22 -43l-101 -118q-102 -121 -133 -136q-31 -12 -57 -12h-68q-49 0 -71.5 6t-22.5 35z" />
<glyph unicode="&#xfb;" horiz-adv-x="1132" d="M135 258v633q0 46 19 67q18 23 63 23h74q61 0 83.5 -16.5t22.5 -73.5v-529q0 -115 15 -141q18 -33 63 -33q65 0 117 25q45 20 135 88v590q0 46 18 67q18 23 64 23h74q61 0 83.5 -16.5t22.5 -73.5v-803q0 -49 -20 -68q-25 -20 -68 -20h-92q-51 0 -70 68q-141 -96 -288 -97 q-119 0 -189 43q-72 45 -98 105q-29 67 -29 139zM229 1229.5q0 16.5 14 36.5l146 201q41 55 59 69q12 12 29 15q12 2 74 2q86 0 102 -17q18 -14 59 -69l146 -201q14 -20 14 -36.5t-33 -31.5q-31 -14 -104 -14q-31 0 -47 6q-8 2 -21 15q-16 16 -24 30l-29 43l-63 86 q-39 -49 -64 -86l-45 -65q-14 -18 -29 -23q-16 -6 -47 -6q-74 0 -104 14q-33 15 -33 31.5z" />
<glyph unicode="&#xfc;" horiz-adv-x="1132" d="M135 258v633q0 46 19 67q18 23 63 23h74q61 0 83.5 -16.5t22.5 -73.5v-529q0 -115 15 -141q18 -33 63 -33q65 0 117 25q45 20 135 88v590q0 46 18 67q18 23 64 23h74q61 0 83.5 -16.5t22.5 -73.5v-803q0 -49 -20 -68q-25 -20 -68 -20h-92q-51 0 -70 68q-141 -96 -288 -97 q-119 0 -189 43q-72 45 -98 105q-29 67 -29 139zM242 1259v137q0 29 16 45q18 18 43 19h134q25 0 43 -19q16 -16 16 -45v-137q0 -27 -16 -43q-18 -18 -43 -18h-134q-23 0 -41 18t-18 43zM627 1259v137q0 29 16 45q18 18 43 19h134q25 0 43 -19q16 -16 16 -45v-137 q0 -25 -18.5 -43t-40.5 -18h-134q-23 0 -41 18t-18 43z" />
<glyph unicode="&#xfd;" horiz-adv-x="1077" d="M78 926q0 25 22 41q20 14 50 14h92q63 0 82 -10q20 -12 32 -47l185 -580l174 557q16 49 39 64q27 16 73 16h88q29 0 49.5 -14.5t20.5 -44.5q0 -16 -12 -48l-445 -1234q-12 -37 -34.5 -49.5t-65.5 -12.5h-102q-72 0 -72 53q0 18 14 50l154 362l-336 850q-8 15 -8 33z M416 1247q0 6 16 35q43 72 113 160q76 98 92 108q15 12 92 12q104 0 133 -12t29 -35q0 -10 -22 -43l-101 -118q-102 -121 -133 -136q-31 -12 -57 -12h-68q-49 0 -71.5 6t-22.5 35z" />
<glyph unicode="&#xfe;" horiz-adv-x="1157" d="M143 -334v1653q0 53 20.5 71.5t69.5 18.5h93q43 0 61.5 -26.5t18.5 -63.5v-404q174 96 305 97q133 0 215 -78q66 -66 90 -168q27 -113 26 -258q0 -135 -12 -205q-10 -63 -45 -131q-53 -102 -156 -149q-104 -49 -237 -50q-96 0 -186 21v-328q0 -53 -17 -72 q-18 -23 -63 -22h-74q-43 0 -64 6q-23 6 -34 29q-11 18 -11 59zM406 219q102 -29 190 -29q59 0 94 15q88 37 88 299q0 61 -6 127q-4 37 -14 96q-15 68 -80 68q-53 0 -127 -33q-86 -37 -145 -76v-467z" />
<glyph unicode="&#xff;" horiz-adv-x="1077" d="M78 926q0 25 22 41q20 14 50 14h92q63 0 82 -10q20 -12 32 -47l185 -580l174 557q16 49 39 64q27 16 73 16h88q29 0 49.5 -14.5t20.5 -44.5q0 -16 -12 -48l-445 -1234q-12 -37 -34.5 -49.5t-65.5 -12.5h-102q-72 0 -72 53q0 18 14 50l154 362l-336 850q-8 15 -8 33z M231 1259v137q0 29 16 45q18 18 43 19h134q25 0 43 -19q16 -16 16 -45v-137q0 -27 -16 -43q-18 -18 -43 -18h-134q-23 0 -41 18t-18 43zM616 1259v137q0 29 16 45q18 18 43 19h134q25 0 43 -19q16 -16 16 -45v-137q0 -25 -18.5 -43t-40.5 -18h-134q-23 0 -41 18t-18 43z" />
<glyph unicode="&#x131;" horiz-adv-x="563" d="M416 88q0 -88 -82 -88h-78q-57 0 -84 16q-25 16 -25 72v780q0 47 20.5 65.5t70.5 18.5h96q39 0 61 -26q20 -23 21 -58v-780z" />
<glyph unicode="&#x152;" horiz-adv-x="1816" d="M129 670q0 231 35 362q37 135 108 211q71 74 179 98q117 27 268 27h891q86 0 86 -84v-55q0 -47 -15 -70q-16 -27 -71 -26q-276 0 -461 6v-320q102 4 158 4q33 0 71.5 1t44.5 1h142q57 0 71 -24q14 -23 15 -72v-29q0 -49 -15 -71q-14 -25 -71 -25h-142q-6 0 -45 1t-71 1 q-55 0 -158 4v-381q215 6 461 7q57 0 71 -25q14 -23 15 -72v-55q0 -84 -86 -84h-891q-141 0 -242 25q-104 25 -172 79q-72 57 -106 136q-39 82 -54 186q-16 111 -16 244zM412 666q0 -150 14 -228q14 -82 59 -129q43 -46 129 -61q72 -10 146 -10q57 0 114 4v884q-57 4 -114 4 q-143 0 -213 -26q-63 -25 -92 -78t-35 -129q-8 -98 -8 -213v-18z" />
<glyph unicode="&#x153;" horiz-adv-x="1748" d="M115 492q0 137 30 235q31 100 95 166q111 119 346 119q207 0 319 -94q96 94 322 94q125 0 204.5 -31t127.5 -96q45 -63 59 -150q16 -94 16 -203q0 -53 -6 -81q-6 -25 -24 -35q-16 -8 -56 -8h-499v-29q0 -76 14 -119q14 -45 53 -63q55 -23 123 -23q106 0 250 33q2 0 8 2 l12 4q10 2 27 6q8 2 25 2q20 0 34 -18q12 -16 21 -45q4 -25 4 -60v-8q0 -41 -14 -61q-16 -23 -60 -29q-145 -27 -309 -27q-227 0 -332 97q-111 -96 -319 -97q-236 0 -346 119q-63 66 -95 166q-30 99 -30 234zM379 491.5q0 -167.5 39 -237.5q20 -35 53 -49q31 -14 115 -15 q86 0 116 15q33 14 52 49q37 68 37 238t-37 237q-18 37 -52 51q-31 14 -116 15q-84 0 -115 -15q-35 -16 -53 -51q-39 -70 -39 -237.5zM1049 588h335v39q0 102 -28.5 141t-128.5 39q-72 0 -111 -19q-37 -16 -53 -61q-14 -41 -14 -121v-18z" />
<glyph unicode="&#x178;" horiz-adv-x="1259" d="M68 1303q0 34 24 49q27 16 55 16h111q45 0 66 -14q23 -16 36 -45l277 -502l283 504q16 33 38 45q20 12 64 12h90q35 0 57 -18q20 -18 21 -50q0 -33 -29 -79l-389 -691v-440q0 -90 -88 -90h-88q-51 0 -76 20q-23 18 -22 70v424l-410 729q-20 33 -20 60zM313 1614v137 q0 29 16 45q18 18 43 19h134q25 0 43 -19q16 -16 16 -45v-137q0 -27 -16 -43q-18 -18 -43 -18h-134q-23 0 -41 18t-18 43zM698 1614v137q0 29 16 45q18 18 43 19h134q25 0 43 -19q16 -16 16 -45v-137q0 -25 -18.5 -43t-40.5 -18h-134q-23 0 -41 18t-18 43z" />
<glyph unicode="&#x2c6;" horiz-adv-x="641" d="M0 1159.5q0 16.5 14 36.5l146 201q41 55 59 69q12 12 29 15q12 2 74 2q86 0 102 -17q18 -14 59 -69l146 -201q14 -20 14 -36.5t-33 -31.5q-31 -14 -104 -14q-31 0 -47 6q-8 2 -21 15q-16 16 -24 30l-29 43l-63 86q-39 -49 -64 -86l-45 -65q-14 -18 -29 -23q-16 -6 -47 -6 q-74 0 -104 14q-33 15 -33 31.5z" />
<glyph unicode="&#x2da;" horiz-adv-x="364" d="M262 1290.5q0 30.5 -22 57.5q-23 25 -58 24q-34 0 -55 -24q-23 -27 -23 -58q0 -29 23 -55q20 -25 55 -25q31 0 55.5 25t24.5 55.5zM365 1290q0 -76 -54 -133q-52 -55 -129 -55q-72 0 -127 55t-55 133q0 76 53 133q53 55 129 56q77 0 129 -56q54 -57 54 -133z" />
<glyph unicode="&#x2dc;" horiz-adv-x="714" d="M0 1165q0 33 29 84q80 150 198 150q37 0 68 -8q63 -16 74 -21l69 -24q27 -8 47 -9q23 0 45 25q16 18 33 31q10 8 33 8h61q57 0 58 -47q0 -23 -21 -64q-72 -152 -202 -151q-25 0 -62 8q-12 2 -72 22q-55 18 -71 25q-23 8 -47 8q-16 0 -25 -4q-2 0 -5 -4l-7 -9t-8 -9 q-20 -20 -35 -31q-20 -14 -58 -15h-67q-35 0 -35 35z" />
<glyph unicode="&#x2000;" horiz-adv-x="972" />
<glyph unicode="&#x2001;" horiz-adv-x="1945" />
<glyph unicode="&#x2002;" horiz-adv-x="972" />
<glyph unicode="&#x2003;" horiz-adv-x="1945" />
<glyph unicode="&#x2004;" horiz-adv-x="647" />
<glyph unicode="&#x2005;" horiz-adv-x="485" />
<glyph unicode="&#x2006;" horiz-adv-x="323" />
<glyph unicode="&#x2007;" horiz-adv-x="323" />
<glyph unicode="&#x2008;" horiz-adv-x="241" />
<glyph unicode="&#x2009;" horiz-adv-x="387" />
<glyph unicode="&#x200a;" horiz-adv-x="106" />
<glyph unicode="&#x2010;" horiz-adv-x="950" d="M98 508v94q0 29 29 41q33 14 61 14h572q94 0 94 -55v-80q0 -45 -16 -59q-20 -16 -78 -17h-572q-49 0 -69.5 14.5t-20.5 47.5z" />
<glyph unicode="&#x2011;" horiz-adv-x="950" d="M98 508v94q0 29 29 41q33 14 61 14h572q94 0 94 -55v-80q0 -45 -16 -59q-20 -16 -78 -17h-572q-49 0 -69.5 14.5t-20.5 47.5z" />
<glyph unicode="&#x2012;" horiz-adv-x="950" d="M98 508v94q0 29 29 41q33 14 61 14h572q94 0 94 -55v-80q0 -45 -16 -59q-20 -16 -78 -17h-572q-49 0 -69.5 14.5t-20.5 47.5z" />
<glyph unicode="&#x2013;" horiz-adv-x="1089" d="M20 459v59q0 41 25 59.5t59 18.5h879q88 0 88 -78v-41q0 -43 -6 -63q-6 -22 -25 -31q-20 -10 -57 -10h-879q-47 0 -65.5 20.5t-18.5 65.5z" />
<glyph unicode="&#x2014;" horiz-adv-x="2078" d="M20 459v59q0 41 25 59.5t59 18.5h1868q88 0 88 -78v-41q0 -43 -6 -63q-6 -22 -24 -31q-20 -10 -58 -10h-1868q-47 0 -65.5 20.5t-18.5 65.5z" />
<glyph unicode="&#x2018;" horiz-adv-x="530" d="M68 1366q0 33 28 45q33 14 56 14h77q35 0 58 -16q20 -14 39 -51l104 -195q23 -49 23 -67q0 -20 -27 -41q-23 -18 -64 -33q-35 -12 -47 -12q-51 0 -82 51l-45 74l-25 45t-20 34l-37 64q-6 10 -15 31.5t-13 27.5z" />
<glyph unicode="&#x2019;" horiz-adv-x="530" d="M82 1096q0 23 22 67l105 195q18 35 41 53q16 14 55 14h78q23 0 55 -14q27 -12 27 -45q0 -14 -10 -39q-20 -43 -74 -133l-80 -133q-27 -51 -82 -51q-29 0 -82 26q-55 29 -55 60z" />
<glyph unicode="&#x201a;" horiz-adv-x="534" d="M82 -156q0 18 22 68l105 194q18 37 41 56q16 14 55 14h78q29 0 55 -14q29 -16 29 -47q0 -12 -12 -37q-20 -43 -74 -133l-80 -133q-31 -51 -80 -52q-31 0 -84 27q-55 28 -55 57z" />
<glyph unicode="&#x201c;" horiz-adv-x="940" d="M68 1366q0 33 28 45q33 14 56 14h77q35 0 58 -16q20 -14 39 -51l104 -195q23 -49 23 -67q0 -20 -27 -41q-23 -18 -64 -33q-35 -12 -47 -12q-51 0 -82 51l-45 74l-25 45t-20 34l-37 64q-6 10 -15 31.5t-13 27.5zM477 1366q0 33 27 45q33 14 57 14h78q37 0 57.5 -14 t38.5 -53l103 -195q25 -49 24.5 -67.5t-28.5 -40.5q-25 -20 -62 -33q-34 -12 -49 -12q-25 0 -43 12q-20 12 -37 39l-57 92l-54 90q-23 37 -47 94q-8 19 -8 29z" />
<glyph unicode="&#x201d;" horiz-adv-x="940" d="M82 1096q0 23 22 67l105 195q18 35 41 53q16 14 55 14h78q23 0 55 -14q27 -12 27 -45q0 -14 -10 -39q-20 -43 -74 -133l-80 -133q-27 -51 -82 -51q-29 0 -82 26q-55 29 -55 60zM489 1096q0 18 23 67l104 195q25 41 41 53q20 14 58 14h76q25 0 57 -14q27 -12 26 -45 q0 -14 -12 -39q-18 -37 -69 -123l-84 -143q-31 -51 -80 -51q-31 0 -84 26q-56 29 -56 60z" />
<glyph unicode="&#x201e;" horiz-adv-x="950" d="M82 -156q0 18 22 68l105 194q18 37 41 56q16 14 55 14h78q29 0 55 -14q29 -16 29 -47q0 -12 -12 -37q-20 -43 -74 -133l-80 -133q-31 -51 -80 -52q-31 0 -84 27q-55 28 -55 57zM502 -156q0 18 22 68l105 194q20 39 39 56q16 14 57 14h78q29 0 55 -14q29 -16 29 -47 q0 -15 -13 -37l-71 -127l-82 -139q-31 -51 -82 -52q-20 0 -49 10.5t-60 30.5q-28 18 -28 43z" />
<glyph unicode="&#x2022;" horiz-adv-x="866" d="M119 643q0 94 41 164q45 78 114 119q74 43 160 43q84 0 158 -43q70 -41 115 -119q43 -74 43 -164q0 -86 -43 -161.5t-117 -119.5q-78 -45 -156 -45q-131 0 -223 95q-92 96 -92 231z" />
<glyph unicode="&#x2026;" horiz-adv-x="1765" d="M125 131.5q0 20.5 14 34.5l142 141q14 14 30 15q18 0 33 -15l141 -141q14 -14 14.5 -34.5t-14.5 -33.5l-141 -139q-16 -14 -31 -14q-16 0 -32 14l-142 139q-14 13 -14 33.5zM719 131.5q0 20.5 14 34.5l141 141q16 14 31 15q18 0 33 -15l141 -141q14 -14 14.5 -34.5 t-14.5 -33.5l-141 -139q-16 -14 -31 -14q-16 0 -33 14l-141 139q-14 13 -14 33.5zM1313 131.5q0 20.5 14 34.5l141 141q16 14 31 15q18 0 33 -15l141 -141q14 -14 14.5 -34.5t-14.5 -33.5l-141 -139q-16 -14 -31 -14q-16 0 -33 14l-141 139q-14 13 -14 33.5z" />
<glyph unicode="&#x202f;" horiz-adv-x="387" />
<glyph unicode="&#x2039;" horiz-adv-x="641" d="M111 477.5q0 14.5 39 75.5q63 102 88 137l77 111q18 27 37 35t66 8q135 0 135 -51q0 -8 -10 -33l-170 -283l170 -282q10 -25 10 -33q0 -51 -135 -51q-43 0 -62 8q-20 8 -41 35l-75 108q-25 35 -90 139q-39 62 -39 76.5z" />
<glyph unicode="&#x203a;" horiz-adv-x="690" d="M90 162q0 8 10 33l170 282l-170 283q-10 25 -10 33q0 51 135 51q47 0 66 -8q16 -6 37 -35l78 -111q25 -35 88 -137q39 -61 38 -76q0 -12 -22 -51q-2 -2 -51 -80l-66 -96l-65 -96q-16 -25 -39 -35q-18 -8 -64 -8q-135 0 -135 51z" />
<glyph unicode="&#x205f;" horiz-adv-x="485" />
<glyph unicode="&#x20ac;" horiz-adv-x="1236" d="M43 496q0 6 4 34l4 23q15 80 105 80h69v108h-106q-74 0 -74 54q0 6 4 34l4 23q15 80 105 80h82q35 272 172 373q115 88 370 88q70 0 219 -11q100 -8 101 -71v-68q0 -59 -17 -76q-14 -14 -57 -14q-53 0 -92 4q-59 6 -115 6q-170 0 -237 -45q-63 -43 -82 -186h475 q74 0 74 -60q0 -12 -2 -20l-5 -23q-14 -88 -106 -88h-446v-69v-39h421q74 0 74 -60q0 -12 -2 -20l-4 -23q-14 -88 -107 -88h-374q18 -150 86 -194q63 -41 235 -41q76 0 115 4q58 6 92 6q59 0 68 -33q6 -18 6 -59v-68q0 -63 -101 -71q-150 -10 -219 -11q-270 0 -399 113 q-121 111 -147 354h-119q-74 1 -74 54z" />
<glyph unicode="&#x2122;" horiz-adv-x="1931" d="M90 1268v30q0 70 78 70h553q35 0 55 -14q23 -16 23 -56v-30q0 -78 -74 -78h-4q-6 0 -31.5 1t-46.5 1q-18 0 -48 1t-42 1v-571q0 -74 -78 -74h-55q-84 0 -84 74v571q-12 0 -42 -1t-48 -1q-20 0 -46 -1t-32 -1h-4q-74 0 -74 78zM891 614v13l67 676q6 66 84 65h72 q65 0 86 -49l160 -387l90 215q25 55 41 99t31 73q23 49 84 49h73q78 0 84 -65l66 -676v-13q0 -66 -84 -65h-55q-72 0 -78 72l-27 354q-3 -6 -6 -19q-2 -12 -10 -22l-35 -78l-41 -88q-25 -49 -37 -70q-18 -35 -35 -51q-10 -10 -47 -10h-51q-35 0 -45 10t-29 47q-23 55 -26 66 q-12 33 -37 92l-37 90l-4 12l-6 13q-4 4 -4 8l-27 -344q-6 -82 -76 -82h-57q-84 -1 -84 65z" />
<glyph unicode="&#x2219;" horiz-adv-x="593" d="M469 649l-141 -141q-14 -14 -31 -14q-18 0 -33 14l-141 141q-14 14 -14 33q0 20 14 35l141 141q14 14 31 14q18 0 33 -14l141 -141q14 -14 14 -33q0 -21 -14 -35z" />
<glyph unicode="&#xf001;" horiz-adv-x="1353" d="M70 836v88q0 31 14 45q12 12 45 12h51v82q0 76 6 119q6 45 19 71q14 33 28 52q51 70 127 94q84 27 226 26q114 0 147 -18t33 -64v-14q0 -94 -27 -127q-12 -14 -34 -14q-14 0 -58 8q-55 10 -116.5 10t-73.5 -20q-14 -20 -15 -123v-82h205q37 0 53 -12q14 -12 15 -45v-82 q0 -45 -16.5 -61.5t-57.5 -16.5h-199v-672q0 -49 -14 -69q-16 -23 -57 -23h-129q-37 0 -49.5 18.5t-12.5 61.5v684h-61q-49 0 -49 72zM938 92v799q0 51 23 70q25 20 67 20h96q45 0 64 -27q18 -29 18 -63v-799q0 -47 -18.5 -69.5t-63.5 -22.5h-77q-59 0 -84 18.5t-25 73.5z M938 1219v71q0 51 23 70q25 20 67 20h96q45 0 63.5 -26.5t18.5 -63.5v-71q0 -92 -82 -93h-77q-59 0 -84 19t-25 74z" />
<glyph unicode="&#xfb01;" horiz-adv-x="1353" d="M70 836v88q0 31 14 45q12 12 45 12h51v82q0 76 6 119q6 45 19 71q14 33 28 52q51 70 127 94q84 27 226 26q114 0 147 -18t33 -64v-14q0 -94 -27 -127q-12 -14 -34 -14q-14 0 -58 8q-55 10 -116.5 10t-73.5 -20q-14 -20 -15 -123v-82h205q37 0 53 -12q14 -12 15 -45v-82 q0 -45 -16.5 -61.5t-57.5 -16.5h-199v-672q0 -49 -14 -69q-16 -23 -57 -23h-129q-37 0 -49.5 18.5t-12.5 61.5v684h-61q-49 0 -49 72zM938 92v799q0 51 23 70q25 20 67 20h96q45 0 64 -27q18 -29 18 -63v-799q0 -47 -18.5 -69.5t-63.5 -22.5h-77q-59 0 -84 18.5t-25 73.5z M938 1219v71q0 51 23 70q25 20 67 20h96q45 0 63.5 -26.5t18.5 -63.5v-71q0 -92 -82 -93h-77q-59 0 -84 19t-25 74z" />
<glyph unicode="&#xf002;" horiz-adv-x="1363" d="M70 836v88q0 31 14 45q12 12 45 12h51v82q0 76 6 119q6 45 19 71q14 33 28 52q51 70 127 94q84 27 226 26q114 0 147 -18t33 -64v-14q0 -94 -27 -127q-12 -14 -34 -14q-14 0 -58 8q-55 10 -116.5 10t-73.5 -20q-14 -20 -15 -123v-82h205q37 0 53 -12q14 -12 15 -45v-82 q0 -45 -16.5 -61.5t-57.5 -16.5h-199v-672q0 -49 -14 -69q-16 -23 -57 -23h-129q-37 0 -49.5 18.5t-12.5 61.5v684h-61q-49 0 -49 72zM961 92v1227q0 51 22 70q25 20 68 20h90q41 0 61.5 -26.5t20.5 -63.5v-1227q0 -92 -82 -92h-74q-59 0 -82 16q-24 19 -24 76z" />
<glyph unicode="&#xfb02;" horiz-adv-x="1363" d="M70 836v88q0 31 14 45q12 12 45 12h51v82q0 76 6 119q6 45 19 71q14 33 28 52q51 70 127 94q84 27 226 26q114 0 147 -18t33 -64v-14q0 -94 -27 -127q-12 -14 -34 -14q-14 0 -58 8q-55 10 -116.5 10t-73.5 -20q-14 -20 -15 -123v-82h205q37 0 53 -12q14 -12 15 -45v-82 q0 -45 -16.5 -61.5t-57.5 -16.5h-199v-672q0 -49 -14 -69q-16 -23 -57 -23h-129q-37 0 -49.5 18.5t-12.5 61.5v684h-61q-49 0 -49 72zM961 92v1227q0 51 22 70q25 20 68 20h90q41 0 61.5 -26.5t20.5 -63.5v-1227q0 -92 -82 -92h-74q-59 0 -82 16q-24 19 -24 76z" />
<glyph unicode="&#xfb03;" horiz-adv-x="2127" d="M1712 92v799q0 51 21 70q25 20 70 20h96q41 0 61.5 -26.5t20.5 -63.5v-799q0 -92 -82 -92h-78q-59 0 -84 18.5t-25 73.5zM1712 1219v71q0 51 21 70q25 20 70 20h96q39 0 61 -28q20 -27 21 -62v-71q0 -92 -82 -93h-78q-59 0 -84 19t-25 74zM852 836v88q0 31 14 45 q12 12 45 12h51v82q0 76 6 119q6 45 19 71q14 33 28 52q51 70 127 94q84 27 226 26q114 0 147 -18t33 -64v-14q0 -94 -27 -127q-12 -14 -34 -14q-14 0 -58 8q-55 10 -116.5 10t-73.5 -20q-14 -20 -15 -123v-82h205q37 0 53 -12q14 -12 15 -45v-82q0 -45 -16.5 -61.5 t-57.5 -16.5h-199v-672q0 -49 -14 -69q-16 -23 -57 -23h-129q-37 0 -49.5 18.5t-12.5 61.5v684h-61q-49 0 -49 72zM70 836v88q0 31 14 45q12 12 45 12h51v82q0 76 6 119q6 45 19 71q14 33 28 52q51 70 127 94q84 27 226 26q114 0 147 -18t33 -64v-14q0 -94 -27 -127 q-12 -14 -34 -14q-14 0 -58 8q-55 10 -116.5 10t-73.5 -20q-14 -20 -15 -123v-82h205q37 0 53 -12q14 -12 15 -45v-82q0 -45 -16.5 -61.5t-57.5 -16.5h-199v-672q0 -49 -14 -69q-16 -23 -57 -23h-129q-37 0 -49.5 18.5t-12.5 61.5v684h-61q-49 0 -49 72z" />
<glyph unicode="&#xfb04;" horiz-adv-x="2113" d="M1708 92v1229q0 51 20.5 69.5t69.5 18.5h93q41 0 61 -27q18 -25 19 -61v-1229q0 -51 -17 -69q-18 -23 -63 -23h-74q-59 0 -84 18.5t-25 73.5zM852 836v88q0 31 14 45q12 12 45 12h51v82q0 76 6 119q6 45 19 71q14 33 28 52q51 70 127 94q84 27 226 26q114 0 147 -18 t33 -64v-14q0 -94 -27 -127q-12 -14 -34 -14q-14 0 -58 8q-55 10 -116.5 10t-73.5 -20q-14 -20 -15 -123v-82h205q37 0 53 -12q14 -12 15 -45v-82q0 -45 -16.5 -61.5t-57.5 -16.5h-199v-672q0 -49 -14 -69q-16 -23 -57 -23h-129q-37 0 -49.5 18.5t-12.5 61.5v684h-61 q-49 0 -49 72zM70 836v88q0 31 14 45q12 12 45 12h51v82q0 76 6 119q6 45 19 71q14 33 28 52q51 70 127 94q84 27 226 26q114 0 147 -18t33 -64v-14q0 -94 -27 -127q-12 -14 -34 -14q-14 0 -58 8q-55 10 -116.5 10t-73.5 -20q-14 -20 -15 -123v-82h205q37 0 53 -12 q14 -12 15 -45v-82q0 -45 -16.5 -61.5t-57.5 -16.5h-199v-672q0 -49 -14 -69q-16 -23 -57 -23h-129q-37 0 -49.5 18.5t-12.5 61.5v684h-61q-49 0 -49 72z" />
</font>
</defs>
</svg>
