<svg xmlns="http://www.w3.org/2000/svg" viewBox="0 0 666.67 666.67"><defs><style>.cls-1{fill:#afbd21;}</style></defs><title>Asset 3</title><g id="Layer_2" data-name="Layer 2"><g id="W_Mark" data-name="W Mark"><g id="W_Mark-2" data-name="W Mark"><path class="cls-1" d="M333.33,20A311.93,311.93,0,0,1,508.51,73.5,314.19,314.19,0,0,1,622.05,211.38a313,313,0,0,1-28.88,297.13A314.19,314.19,0,0,1,455.29,622.05a313,313,0,0,1-297.13-28.88A314.19,314.19,0,0,1,44.62,455.29,313,313,0,0,1,73.5,158.16,314.94,314.94,0,0,1,158.16,73.5,311.93,311.93,0,0,1,333.33,20m0-20C149.24,0,0,149.24,0,333.33S149.24,666.67,333.33,666.67,666.67,517.43,666.67,333.33,517.43,0,333.33,0Z"/></g></g><g id="Isolation_Mode" data-name="Isolation Mode"><path class="cls-1" d="M435.69,238.59c0-47.24-26.25-87.91-85.29-87.91H296.6V325.19h53.8C409.44,325.19,435.69,284.52,435.69,238.59Z"/><path class="cls-1" d="M351.71,111.32c115.48,0,177.14,55.11,177.14,127.27,0,57.74-43.3,108.91-124.66,123.36l60.36,65.6c32.15,35.36,58.92,60.32,87.81,76.18a276.29,276.29,0,0,0,58.47-170.4c0-153.26-124.24-277.5-277.5-277.5a276.23,276.23,0,0,0-166.49,55.49Z"/><path class="cls-1" d="M131,523.22c64.36-1.71,75.06-21.44,75.06-110.1v-168c0-85.52-10-105.81-68.41-108.57A277.46,277.46,0,0,0,131,523.22Z"/><path class="cls-1" d="M464.55,548.26,318.9,365.89H296.6v47.23c0,93.16,11.81,110.22,85.29,110.22v24.92H157.81a277.48,277.48,0,0,0,351.05,0Z"/></g></g></svg>